# Object Export From Tinkercad Server 2015

mtllib obj.mtl

o obj_0
v 7.434 		19.662 		0.341
v 6.206 		19.5 		0.761
v 7.412 		20 		0.341
v 7.434 		20.338 		0.341
v 6.304 		19.01 		0.761
v 6.464 		18.536 		0.761
v 7.5 		19.33 		0.341
v 7.609 		19.01 		0.341
v 7.759 		18.706 		0.341
v 5 		20 		1.34
v 5.043 		19.347 		1.34
v 5.17 		18.706 		1.34
v 6.686 		18.087 		0.761
v 6.964 		17.67 		0.761
v 7.947 		18.424 		0.341
v 8.17 		18.17 		0.341
v 6.464 		16.464 		1.34
v 7.294 		17.294 		0.761
v 7.67 		16.964 		0.761
v 8.087 		16.686 		0.761
v 5.381 		18.087 		1.34
v 5.67 		17.5 		1.34
v 6.033 		16.956 		1.34
v 17.011 		12.989 		8.695
v 17.071 		12.929 		10
v 16.384 		12.3259 		10
v 17.866 		13.964 		8.695
v 17.934 		13.912 		10
v 17.934 		13.912 		10
v 18.586 		15.043 		8.695
v 18.66 		15 		10
v 19.16 		16.206 		8.695
v 19.239 		16.173 		10
v 19.2366 		16.1682 		10
v 16.83 		13.17 		7.412
v 17.663 		14.12 		7.412
v 18.365 		15.17 		7.412
v 18.924 		16.304 		7.412
v 16.533 		13.467 		6.173
v 17.33 		14.376 		6.173
v 18.001 		15.381 		6.173
v 16.871 		14.728 		5
v 17.5 		15.67 		5
v 12.391 		19.01 		39.659
v 10 		20 		0
v 12.5 		19.33 		39.659
v 13.536 		18.536 		39.239
v 13.696 		19.01 		39.239
v 12.33 		16.964 		39.239
v 12.706 		17.294 		39.239
v 13.036 		17.67 		39.239
v 13.314 		18.087 		39.239
v 11.261 		29.577 		7.412
v 10 		29.239 		6.173
v 11.206 		29.16 		6.173
v 8.794 		29.16 		6.173
v 8.739 		29.577 		7.412
v 14.83 		18.706 		38.66
v 14.957 		19.347 		38.66
v 15 		20 		38.66
v 15.272 		26.871 		5
v 14.33 		27.5 		5
v 16.036 		19.205 		37.934
v 13.314 		28.001 		5
v 16.088 		20 		37.934
v 13.967 		26.871 		3.912
v 13.036 		27.33 		3.912
v 13.536 		16.464 		38.66
v 13.967 		16.956 		38.66
v 14.33 		17.5 		38.66
v 16.124 		26.124 		5
v 14.619 		18.087 		38.66
v 16.294 		24.83 		3.912
v 15.61 		25.61 		3.912
v 3.964 		20.795 		37.934
v 2.989 		20.923 		37.071
v 15.272 		16.956 		37.934
v 15.624 		17.67 		37.934
v 15.88 		18.424 		37.934
v 16.124 		16.464 		37.071
v 3.129 		23.967 		36.088
v 2.67 		23.036 		36.088
v 5 		28.66 		10
v 5.0243 		28.672 		10
v 2.337 		22.053 		36.088
v 4.096 		28.0568 		10
v 2.134 		21.036 		36.088
v 11.294 		19.83 		39.914
v 11.305 		20 		39.914
v 11.294 		20.17 		39.914
v 2.5 		24.33 		35
v 1.999 		23.314 		35
v 1.635 		22.241 		35
v 10 		11.34 		35
v 11.13 		11.414 		35
v 15.624 		12.67 		33.827
v 15.88 		12.337 		32.588
v 11.206 		19.5 		39.914
v 11.261 		19.662 		39.914
v 11.261 		20.338 		39.914
v 12.391 		11.076 		33.827
v 13.536 		11.464 		33.827
v 3.912 		27.934 		10
v 3.9167 		27.9371 		10
v 14.619 		11.999 		33.827
v 2.929 		27.071 		10
v 2.066 		26.088 		10
v 12.5 		10.67 		32.588
v 2.066 		26.088 		10
v 1.34 		25 		10
v 13.696 		11.076 		32.588
v 14.83 		11.635 		32.588
v 1.414 		21.13 		35
v 7.412 		20 		39.659
v 7.434 		19.662 		39.659
v 12.566 		10.423 		31.305
v 13.794 		10.84 		31.305
v 14.957 		11.414 		31.305
v 16.036 		12.134 		31.305
v 8.794 		10.84 		33.827
v 0.761 		23.827 		10
v 10 		10.761 		33.827
v 0.7634 		23.8318 		10
v 0.341 		22.588 		10
v 11.206 		10.84 		33.827
v 0.086 		21.305 		10
v 8.739 		10.423 		32.588
v 10 		10.341 		32.588
v 11.261 		10.423 		32.588
v 14.83 		26.294 		3.912
v 8.706 		10.17 		31.305
v 10 		10.086 		31.305
v 11.294 		10.17 		31.305
v 15 		25 		2.929
v 14.305 		25.61 		2.929
v 13.536 		26.124 		2.929
v 12.588 		10.341 		30
v 13.827 		10.761 		30
v 12.706 		26.533 		2.929
v 15 		11.34 		30
v 16.088 		12.066 		30
v 8.695 		10.086 		30
v 10 		10 		30
v 11.305 		10.086 		30
v 13.706 		24.83 		2.066
v 13.044 		25.272 		2.066
v 12.33 		25.624 		2.066
v 7.434 		20.338 		39.659
v 6.173 		20 		39.239
v 6.206 		19.5 		39.239
v 12.241 		28.365 		5
v 11.13 		28.586 		5
v 10 		28.66 		5
v 8.87 		28.586 		5
v 12.053 		27.663 		3.912
v 11.036 		27.866 		3.912
v 10 		27.934 		3.912
v 8.964 		27.866 		3.912
v 16.871 		16.033 		3.912
v 16.3409 		12.288 		10
v 15.88 		12.337 		7.412
v 15.624 		12.67 		6.173
v 12.566 		10.423 		8.695
v 12.588 		10.341 		10
v 13.794 		10.84 		8.695
v 13.827 		10.761 		10
v 13.8266 		10.7609 		10
v 14.957 		11.414 		8.695
v 15 		11.34 		10
v 16.036 		12.134 		8.695
v 16.088 		12.066 		10
v 16.0833 		12.0629 		10
v 12.5 		10.67 		7.412
v 13.696 		11.076 		7.412
v 14.83 		11.635 		7.412
v 12.391 		11.076 		6.173
v 13.536 		11.464 		6.173
v 8.706 		19.83 		0.086
v 14.619 		11.999 		6.173
v 8.695 		20 		0.086
v 8.739 		19.662 		0.086
v 8.794 		19.5 		0.086
v 8.739 		20.338 		0.086
v 8.706 		20.17 		0.086
v 16.871 		25.272 		35
v 17.011 		20.923 		37.071
v 16.83 		21.83 		37.071
v 16.533 		22.706 		37.071
v 9.347 		18.87 		0.086
v 9.5 		18.794 		0.086
v 17.866 		21.036 		36.088
v 17.663 		22.053 		36.088
v 9.662 		18.739 		0.086
v 9.83 		18.706 		0.086
v 17.33 		23.036 		36.088
v 16.871 		23.967 		36.088
v 10 		18.695 		0.086
v 7.5 		19.33 		39.659
v 10.17 		18.706 		0.086
v 8.706 		10.17 		8.695
v 8.695 		10.086 		10
v 7.609 		19.01 		39.659
v 8.192 		10.186 		10
v 10 		10.086 		8.695
v 7.759 		18.706 		39.659
v 10 		10 		10
v 9.9902 		10.0006 		10
v 11.294 		10.17 		8.695
v 11.305 		10.086 		10
v 6.304 		19.01 		39.239
v 6.464 		18.536 		39.239
v 18.586 		21.13 		35
v 18.365 		22.241 		35
v 18.001 		23.314 		35
v 17.5 		24.33 		35
v 7.947 		18.424 		39.659
v 8.17 		18.17 		39.659
v 16.533 		17.294 		37.071
v 6.686 		18.087 		39.239
v 16.83 		18.17 		37.071
v 6.964 		17.67 		39.239
v 7.294 		17.294 		39.239
v 7.67 		16.964 		39.239
v 17.011 		19.077 		37.071
v 17.071 		20 		37.071
v 8.087 		16.686 		39.239
v 17.33 		16.964 		36.088
v 5.043 		19.347 		38.66
v 17.663 		17.947 		36.088
v 5 		20 		38.66
v 5.17 		18.706 		38.66
v 17.866 		18.964 		36.088
v 17.934 		20 		36.088
v 12.241 		18.706 		39.659
v 18.001 		16.686 		35
v 18.365 		17.759 		35
v 5.381 		18.087 		38.66
v 18.586 		18.87 		35
v 5.67 		17.5 		38.66
v 10.338 		18.739 		39.914
v 10.5 		18.794 		39.914
v 18.66 		20 		35
v 10.653 		18.87 		39.914
v 6.033 		16.956 		38.66
v 10.795 		18.964 		39.914
v 10.923 		19.077 		39.914
v 11.036 		19.205 		39.914
v 11.13 		19.347 		39.914
v 6.464 		16.464 		38.66
v 11.83 		26.83 		2.929
v 4.12 		18.424 		37.934
v 4.376 		17.67 		37.934
v 10.923 		27.011 		2.929
v 4.728 		16.956 		37.934
v 10 		27.071 		2.929
v 9.077 		27.011 		2.929
v 8.739 		10.423 		7.412
v 10 		10.341 		7.412
v 3.964 		19.205 		37.934
v 3.912 		20 		37.934
v 11.261 		10.423 		7.412
v 2.989 		19.077 		37.071
v 2.929 		20 		37.071
v 3.17 		18.17 		37.071
v 3.467 		17.294 		37.071
v 3.876 		16.464 		37.071
v 8.794 		10.84 		6.173
v 11.576 		25.88 		2.066
v 10.795 		26.036 		2.066
v 10 		26.088 		2.066
v 6.956 		16.033 		38.66
v 10 		10.761 		6.173
v 7.5 		15.67 		38.66
v 11.206 		10.84 		6.173
v 8.087 		15.381 		38.66
v 6.294 		15.17 		37.934
v 14.33 		12.5 		5
v 6.956 		14.728 		37.934
v 7.67 		14.376 		37.934
v 15.272 		13.129 		5
v 16.124 		13.876 		5
v 13.036 		12.67 		3.912
v 8.87 		19.347 		0.086
v 13.967 		13.129 		3.912
v 8.964 		19.205 		0.086
v 14.83 		13.706 		3.912
v 9.077 		19.077 		0.086
v 5.17 		16.294 		37.934
v 9.205 		18.964 		0.086
v 15.61 		14.39 		3.912
v 5.695 		15.695 		37.934
v 16.294 		15.17 		3.912
v 4.39 		15.695 		37.071
v 5 		15 		37.071
v 10.338 		17.434 		0.341
v 5.695 		14.39 		37.071
v 10.67 		17.5 		0.341
v 10.99 		17.609 		0.341
v 9.205 		26.036 		2.066
v 11.294 		17.759 		0.341
v 8.424 		25.88 		2.066
v 11.576 		17.947 		0.341
v 11.83 		18.17 		0.341
v 12.053 		18.424 		0.341
v 11.913 		24.619 		1.34
v 11.464 		16.464 		0.761
v 11.294 		24.83 		1.34
v 11.913 		16.686 		0.761
v 10.653 		24.957 		1.34
v 10 		25 		1.34
v 9.347 		24.957 		1.34
v 8.706 		24.83 		1.34
v 8.424 		17.947 		0.341
v 8.706 		17.759 		0.341
v 9.01 		17.609 		0.341
v 9.33 		17.5 		0.341
v 9.662 		17.434 		0.341
v 10 		17.412 		0.341
v 16.124 		23.536 		2.929
v 15.61 		24.305 		2.929
v 15.272 		23.044 		2.066
v 14.83 		23.706 		2.066
v 14.305 		24.305 		2.066
v 8.536 		16.464 		0.761
v 16.036 		20.795 		2.066
v 15.88 		21.576 		2.066
v 15.624 		22.33 		2.066
v 7.434 		29.577 		8.695
v 7.412 		29.659 		10
v 8.192 		29.814 		10
v 6.206 		29.16 		8.695
v 16.124 		16.464 		2.929
v 6.173 		29.239 		10
v 6.1734 		29.2391 		10
v 15.272 		16.956 		2.066
v 7.5 		29.33 		7.412
v 15.624 		17.67 		2.066
v 6.304 		28.924 		7.412
v 15.88 		18.424 		2.066
v 16.036 		19.205 		2.066
v 7.609 		28.924 		6.173
v 16.088 		20 		2.066
v 5.043 		28.586 		8.695
v 5.17 		28.365 		7.412
v 4.12 		27.663 		7.412
v 13.967 		23.044 		1.34
v 13.536 		23.536 		1.34
v 6.464 		28.536 		6.173
v 5.381 		28.001 		6.173
v 13.044 		23.967 		1.34
v 12.5 		24.33 		1.34
v 4.376 		27.33 		6.173
v 6.464 		13.876 		37.071
v 3.964 		27.866 		8.695
v 7.294 		13.467 		37.071
v 2.989 		27.011 		8.695
v 8.17 		13.17 		37.071
v 2.134 		26.036 		8.695
v 0 		20 		10
v 0.086 		18.695 		10
v 1.414 		24.957 		8.695
v 0.0006 		20.0098 		10
v 0.341 		17.412 		10
v 10 		20 		40
v 2.066 		20 		36.088
v 2.134 		18.964 		36.088
v 3.17 		26.83 		7.412
v 2.337 		17.947 		36.088
v 2.337 		25.88 		7.412
v 2.67 		16.964 		36.088
v 1.635 		24.83 		7.412
v 3.467 		26.533 		6.173
v 2.67 		25.624 		6.173
v 1.414 		18.87 		35
v 1.999 		24.619 		6.173
v 1.34 		20 		35
v 1.635 		17.759 		35
v 1.999 		16.686 		35
v 7.759 		28.365 		5
v 6.686 		28.001 		5
v 5.67 		27.5 		5
v 4.728 		26.871 		5
v 7.609 		28.924 		33.827
v 7.5 		29.33 		32.588
v 7.947 		27.663 		3.912
v 6.304 		28.924 		32.588
v 6.964 		27.33 		3.912
v 7.434 		29.577 		31.305
v 6.033 		26.871 		3.912
v 4.39 		14.39 		36.088
v 5.17 		26.294 		3.912
v 5.17 		13.706 		36.088
v 4.39 		25.61 		3.912
v 6.033 		13.129 		36.088
v 6.206 		29.16 		31.305
v 6.964 		12.67 		36.088
v 7.947 		12.337 		36.088
v 4.728 		13.129 		35
v 5.67 		12.5 		35
v 6.686 		11.999 		35
v 7.759 		11.635 		35
v 3.129 		16.033 		36.088
v 3.706 		15.17 		36.088
v 2.5 		15.67 		35
v 3.129 		14.728 		35
v 3.876 		13.876 		35
v 4.376 		12.67 		33.827
v 18.001 		24.619 		33.827
v 17.33 		25.624 		33.827
v 4.12 		12.337 		32.588
v 16.533 		26.533 		33.827
v 5.381 		11.999 		33.827
v 18.365 		24.83 		32.588
v 6.464 		11.464 		33.827
v 17.663 		25.88 		32.588
v 7.609 		11.076 		33.827
v 16.83 		26.83 		32.588
v 5.17 		11.635 		32.588
v 6.304 		11.076 		32.588
v 18.586 		24.957 		31.305
v 7.5 		10.67 		32.588
v 17.866 		26.036 		31.305
v 17.011 		27.011 		31.305
v 5.043 		11.414 		31.305
v 6.206 		10.84 		31.305
v 7.434 		10.423 		31.305
v 18.66 		25 		30
v 17.934 		26.088 		30
v 17.071 		27.071 		30
v 19.16 		21.206 		33.827
v 18.924 		22.391 		33.827
v 1.999 		15.381 		33.827
v 2.67 		14.376 		33.827
v 18.536 		23.536 		33.827
v 3.467 		13.467 		33.827
v 19.577 		21.261 		32.588
v 1.076 		16.304 		32.588
v 1.635 		15.17 		32.588
v 19.33 		22.5 		32.588
v 2.337 		14.12 		32.588
v 18.924 		23.696 		32.588
v 8.17 		26.83 		2.929
v 19.83 		21.294 		31.305
v 19.577 		22.566 		31.305
v 7.294 		26.533 		2.929
v 19.16 		23.794 		31.305
v 6.464 		26.124 		2.929
v 5.695 		25.61 		2.929
v 15 		15 		2.929
v 15.61 		15.695 		2.929
v 18.536 		16.464 		33.827
v 18.924 		17.609 		33.827
v 19.16 		18.794 		33.827
v 19.239 		20 		33.827
v 14.83 		16.294 		2.066
v 19.33 		17.5 		32.588
v 19.577 		18.739 		32.588
v 14.305 		14.39 		2.929
v 19.659 		20 		32.588
v 12.33 		14.376 		2.066
v 13.044 		14.728 		2.066
v 13.706 		15.17 		2.066
v 14.305 		15.695 		2.066
v 12.706 		22.706 		0.761
v 12.33 		23.036 		0.761
v 12.706 		13.467 		2.929
v 13.536 		13.876 		2.929
v 14.957 		20.653 		1.34
v 8.695 		20 		39.914
v 8.706 		19.83 		39.914
v 8.739 		19.662 		39.914
v 14.83 		21.294 		1.34
v 8.794 		19.5 		39.914
v 14.619 		21.913 		1.34
v 14.33 		22.5 		1.34
v 13.314 		21.913 		0.761
v 13.036 		22.33 		0.761
v 6.464 		28.536 		33.827
v 5.381 		28.001 		33.827
v 4.376 		27.33 		33.827
v 13.794 		20.5 		0.761
v 13.696 		20.99 		0.761
v 13.536 		21.464 		0.761
v 5.17 		28.365 		32.588
v 12.5 		20.67 		0.341
v 4.12 		27.663 		32.588
v 12.391 		20.99 		0.341
v 5.043 		28.586 		31.305
v 11.913 		23.314 		0.761
v 11.464 		23.536 		0.761
v 3.467 		26.533 		33.827
v 10.99 		23.696 		0.761
v 2.67 		25.624 		33.827
v 10.5 		23.794 		0.761
v 1.999 		24.619 		33.827
v 3.17 		26.83 		32.588
v 2.337 		25.88 		32.588
v 1.635 		24.83 		32.588
v 10.338 		22.566 		0.341
v 10 		23.827 		0.761
v 3.964 		27.866 		31.305
v 9.5 		23.794 		0.761
v 2.989 		27.011 		31.305
v 9.01 		23.696 		0.761
v 2.134 		26.036 		31.305
v 1.414 		24.957 		31.305
v 8.536 		23.536 		0.761
v 10 		22.588 		0.341
v 9.662 		22.566 		0.341
v 5 		25 		2.929
v 12.053 		21.576 		0.341
v 7.67 		25.624 		2.066
v 11.83 		21.83 		0.341
v 6.956 		25.272 		2.066
v 11.576 		22.053 		0.341
v 11.294 		22.241 		0.341
v 6.294 		24.83 		2.066
v 10.99 		22.391 		0.341
v 10.67 		22.5 		0.341
v 3.876 		26.124 		5
v 3.129 		25.272 		5
v 3.706 		24.83 		3.912
v 12.241 		21.294 		0.341
v 8.087 		24.619 		1.34
v 0.84 		23.794 		8.695
v 0.423 		22.566 		8.695
v 0.17 		21.294 		8.695
v 11.206 		20.5 		0.086
v 11.13 		20.653 		0.086
v 11.036 		20.795 		0.086
v 10.923 		20.923 		0.086
v 1.076 		23.696 		7.412
v 10.795 		21.036 		0.086
v 0.67 		22.5 		7.412
v 10.653 		21.13 		0.086
v 0.423 		21.261 		7.412
v 10.5 		21.206 		0.086
v 1.464 		23.536 		6.173
v 10.338 		21.261 		0.086
v 1.076 		22.391 		6.173
v 0.84 		21.206 		6.173
v 8.739 		20.338 		39.914
v 8.706 		20.17 		39.914
v 3.17 		13.17 		32.588
v 19.577 		17.434 		31.305
v 13.314 		11.999 		5
v 19.83 		18.706 		31.305
v 19.914 		20 		31.305
v 12.053 		12.337 		3.912
v 0.84 		16.206 		31.305
v 1.414 		15.043 		31.305
v 19.914 		21.305 		30
v 2.134 		13.964 		31.305
v 9.347 		18.87 		39.914
v 19.659 		22.588 		30
v 9.5 		18.794 		39.914
v 9.662 		18.739 		39.914
v 2.989 		12.989 		31.305
v 9.83 		18.706 		39.914
v 10 		18.695 		39.914
v 10.17 		18.706 		39.914
v 10.923 		12.989 		2.929
v 11.83 		13.17 		2.929
v 0.17 		18.706 		8.695
v 0.086 		20 		8.695
v 0.423 		17.434 		8.695
v 3.964 		12.134 		31.305
v 10.795 		13.964 		2.066
v 11.576 		14.12 		2.066
v 7.412 		29.659 		30
v 8.87 		19.347 		39.914
v 8.964 		19.205 		39.914
v 6.173 		29.239 		30
v 9.077 		19.077 		39.914
v 9.205 		18.964 		39.914
v 5 		28.66 		30
v 3.912 		27.934 		30
v 9.077 		12.989 		2.929
v 0.341 		20 		7.412
v 0.423 		18.739 		7.412
v 2.929 		27.071 		30
v 10 		12.929 		2.929
v 2.066 		26.088 		30
v 0.67 		17.5 		7.412
v 1.34 		25 		30
v 8.424 		14.12 		2.066
v 1.464 		23.536 		33.827
v 9.205 		13.964 		2.066
v 10.338 		17.434 		39.659
v 10 		13.912 		2.066
v 1.076 		22.391 		33.827
v 0.761 		20 		6.173
v 0.84 		18.794 		6.173
v 10.67 		17.5 		39.659
v 0.84 		21.206 		33.827
v 1.076 		17.609 		6.173
v 10.99 		17.609 		39.659
v 1.464 		16.464 		6.173
v 1.076 		23.696 		32.588
v 11.294 		17.759 		39.659
v 0.67 		22.5 		32.588
v 0.423 		21.261 		32.588
v 8.87 		11.414 		5
v 11.576 		17.947 		39.659
v 10 		11.34 		5
v 11.83 		18.17 		39.659
v 5 		11.34 		30
v 11.13 		11.414 		5
v 12.053 		18.424 		39.659
v 12.241 		11.635 		5
v 4.39 		24.305 		2.929
v 5.695 		24.305 		2.066
v 8.964 		12.134 		3.912
v 10 		12.066 		3.912
v 5.17 		23.706 		2.066
v 11.036 		12.134 		3.912
v 4.728 		23.044 		2.066
v 4.376 		22.33 		2.066
v 4.12 		21.576 		2.066
v 12.5 		15.67 		1.34
v 11.464 		16.464 		39.239
v 13.044 		16.033 		1.34
v 11.913 		16.686 		39.239
v 2.5 		24.33 		5
v 10.653 		15.043 		1.34
v 11.294 		15.17 		1.34
v 1.999 		23.314 		5
v 11.913 		15.381 		1.34
v 1.635 		22.241 		5
v 8.424 		17.947 		39.659
v 1.414 		21.13 		5
v 10.5 		16.206 		0.761
v 8.706 		17.759 		39.659
v 19.239 		23.827 		30
v 19.659 		17.412 		30
v 9.01 		17.609 		39.659
v 19.914 		18.695 		30
v 20 		20 		30
v 9.33 		17.5 		39.659
v 13.706 		24.83 		37.934
v 9.662 		17.434 		39.659
v 13.044 		25.272 		37.934
v 10 		17.412 		39.659
v 12.33 		25.624 		37.934
v 15 		25 		37.071
v 14.305 		25.61 		37.071
v 13.536 		26.124 		37.071
v 12.706 		26.533 		37.071
v 6.173 		10.761 		30
v 7.412 		10.341 		30
v 8.536 		16.464 		39.239
v 0.761 		16.173 		30
v 1.34 		15 		30
v 13.967 		26.871 		36.088
v 13.036 		27.33 		36.088
v 15.272 		26.871 		35
v 12.391 		28.924 		33.827
v 14.33 		27.5 		35
v 9.33 		22.5 		0.341
v 13.696 		28.924 		32.588
v 9.01 		22.391 		0.341
v 13.314 		28.001 		35
v 12.5 		29.33 		32.588
v 8.706 		22.241 		0.341
v 13.794 		29.16 		31.305
v 12.566 		29.577 		31.305
v 8.424 		22.053 		0.341
v 2.066 		13.912 		30
v 2.929 		12.929 		30
v 3.912 		12.066 		30
v 16.294 		24.83 		36.088
v 15.61 		25.61 		36.088
v 14.83 		26.294 		36.088
v 16.088 		27.934 		30
v 15 		28.66 		30
v 13.827 		29.239 		30
v 12.588 		29.659 		30
v 11.305 		29.914 		30
v 10 		30 		30
v 8.695 		29.914 		30
v 16.124 		26.124 		35
v 0.761 		23.827 		30
v 0.341 		22.588 		30
v 0.086 		21.305 		30
v 0 		20 		30
v 0.086 		18.695 		30
v 0.341 		17.412 		30
v 17.071 		12.929 		30
v 17.934 		13.912 		30
v 18.66 		15 		30
v 19.239 		16.173 		30
v 11.83 		26.83 		37.071
v 10.923 		27.011 		37.071
v 3.129 		23.967 		3.912
v 10 		27.071 		37.071
v 2.67 		23.036 		3.912
v 9.077 		27.011 		37.071
v 2.337 		22.053 		3.912
v 15.624 		27.33 		33.827
v 2.134 		21.036 		3.912
v 14.619 		28.001 		33.827
v 13.536 		28.536 		33.827
v 11.913 		24.619 		38.66
v 11.294 		24.83 		38.66
v 3.876 		23.536 		2.929
v 10.653 		24.957 		38.66
v 15.88 		27.663 		32.588
v 3.467 		22.706 		2.929
v 14.83 		28.365 		32.588
v 3.17 		21.83 		2.929
v 11.576 		25.88 		37.934
v 2.989 		20.923 		2.929
v 10.795 		26.036 		37.934
v 16.036 		27.866 		31.305
v 14.957 		28.586 		31.305
v 3.964 		20.795 		2.066
v 10 		25 		38.66
v 9.347 		24.957 		38.66
v 4.12 		18.424 		2.066
v 8.706 		24.83 		38.66
v 4.376 		17.67 		2.066
v 10 		26.088 		37.934
v 4.728 		16.956 		2.066
v 9.205 		26.036 		37.934
v 8.424 		25.88 		37.934
v 1.414 		18.87 		5
v 1.34 		20 		5
v 1.635 		17.759 		5
v 12.053 		27.663 		36.088
v 1.999 		16.686 		5
v 10.99 		16.304 		0.761
v 2.066 		20 		3.912
v 2.134 		18.964 		3.912
v 2.337 		17.947 		3.912
v 11.206 		29.16 		33.827
v 8.706 		15.17 		1.34
v 10 		29.239 		33.827
v 2.67 		16.964 		3.912
v 9.347 		15.043 		1.34
v 8.794 		29.16 		33.827
v 10 		15 		1.34
v 11.261 		29.577 		32.588
v 9.01 		16.304 		0.761
v 9.5 		16.206 		0.761
v 10 		29.659 		32.588
v 2.989 		19.077 		2.929
v 10 		16.173 		0.761
v 2.929 		20 		2.929
v 3.17 		18.17 		2.929
v 8.739 		29.577 		32.588
v 3.467 		17.294 		2.929
v 3.876 		16.464 		2.929
v 3.912 		20 		2.066
v 3.964 		19.205 		2.066
v 11.294 		29.83 		31.305
v 4.12 		12.337 		7.412
v 4.376 		12.67 		6.173
v 5.043 		11.414 		8.695
v 5 		11.34 		10
v 4.096 		11.9432 		10
v 0.84 		23.794 		31.305
v 6.206 		10.84 		8.695
v 0.423 		22.566 		31.305
v 0.17 		21.294 		31.305
v 6.173 		10.761 		10
v 7.434 		10.423 		8.695
v 7.412 		10.341 		10
v 5.17 		11.635 		7.412
v 6.304 		11.076 		7.412
v 7.5 		10.67 		7.412
v 0.761 		20 		33.827
v 0.84 		18.794 		33.827
v 5.381 		11.999 		6.173
v 1.076 		17.609 		33.827
v 6.464 		11.464 		6.173
v 1.464 		16.464 		33.827
v 7.609 		11.076 		6.173
v 0.423 		18.739 		32.588
v 0.341 		20 		32.588
v 0.67 		17.5 		32.588
v 0.84 		16.206 		8.695
v 0.761 		16.173 		10
v 0.7609 		16.1734 		10
v 1.414 		15.043 		8.695
v 1.34 		15 		10
v 2.134 		13.964 		8.695
v 2.066 		13.912 		10
v 2.0629 		13.9167 		10
v 2.989 		12.989 		8.695
v 2.929 		12.929 		10
v 10.17 		21.294 		0.086
v 10 		21.305 		0.086
v 3.6591 		12.288 		10
v 9.83 		21.294 		0.086
v 9.662 		21.261 		0.086
v 9.5 		21.206 		0.086
v 9.347 		21.13 		0.086
v 1.076 		16.304 		7.412
v 1.635 		15.17 		7.412
v 2.337 		14.12 		7.412
v 3.17 		13.17 		7.412
v 9.205 		21.036 		0.086
v 9.077 		20.923 		0.086
v 8.964 		20.795 		0.086
v 8.87 		20.653 		0.086
v 1.999 		15.381 		6.173
v 8.794 		20.5 		0.086
v 2.67 		14.376 		6.173
v 3.467 		13.467 		6.173
v 14.83 		18.706 		1.34
v 14.957 		19.347 		1.34
v 15 		20 		1.34
v 10 		29.914 		31.305
v 11.036 		27.866 		36.088
v 10 		27.934 		36.088
v 8.706 		29.83 		31.305
v 8.964 		27.866 		36.088
v 13.794 		19.5 		0.761
v 13.827 		20 		0.761
v 12.241 		28.365 		35
v 0.17 		18.706 		31.305
v 0.086 		20 		31.305
v 0.423 		17.434 		31.305
v 11.13 		28.586 		35
v 10 		28.66 		35
v 8.87 		28.586 		35
v 8.17 		26.83 		37.071
v 12.706 		22.706 		39.239
v 8.087 		24.619 		38.66
v 12.33 		23.036 		39.239
v 16.871 		16.033 		36.088
v 7.67 		25.624 		37.934
v 16.871 		14.728 		35
v 6.956 		25.272 		37.934
v 17.5 		15.67 		35
v 12.5 		20.67 		39.659
v 16.533 		13.467 		33.827
v 12.391 		20.99 		39.659
v 17.33 		14.376 		33.827
v 13.794 		20.5 		39.239
v 18.001 		15.381 		33.827
v 13.696 		20.99 		39.239
v 16.83 		13.17 		32.588
v 13.536 		21.464 		39.239
v 17.663 		14.12 		32.588
v 18.365 		15.17 		32.588
v 13.314 		21.913 		39.239
v 18.924 		16.304 		32.588
v 13.036 		22.33 		39.239
v 17.011 		12.989 		31.305
v 15.272 		23.044 		37.934
v 14.83 		23.706 		37.934
v 16.124 		23.536 		37.071
v 15.61 		24.305 		37.071
v 7.5 		24.33 		1.34
v 6.956 		23.967 		1.34
v 6.464 		23.536 		1.34
v 6.033 		23.044 		1.34
v 13.967 		23.044 		38.66
v 13.536 		23.536 		38.66
v 13.044 		23.967 		38.66
v 8.087 		23.314 		0.761
v 12.5 		24.33 		38.66
v 7.67 		23.036 		0.761
v 7.294 		22.706 		0.761
v 14.305 		24.305 		37.934
v 14.957 		20.653 		38.66
v 14.83 		21.294 		38.66
v 6.964 		22.33 		0.761
v 14.619 		21.913 		38.66
v 6.686 		21.913 		0.761
v 14.33 		22.5 		38.66
v 16.036 		20.795 		37.934
v 8.17 		21.83 		0.341
v 15.88 		21.576 		37.934
v 7.947 		21.576 		0.341
v 15.624 		22.33 		37.934
v 6.464 		21.464 		0.761
v 6.304 		20.99 		0.761
v 6.206 		20.5 		0.761
v 7.759 		21.294 		0.341
v 7.609 		20.99 		0.341
v 10.338 		22.566 		39.659
v 7.5 		20.67 		0.341
v 3.964 		12.134 		8.695
v 3.912 		12.066 		10
v 3.912 		12.066 		10
v 4.728 		13.129 		5
v 5.67 		12.5 		5
v 4.39 		14.39 		3.912
v 5.17 		13.706 		3.912
v 6.033 		13.129 		3.912
v 6.964 		12.67 		3.912
v 7.947 		12.337 		3.912
v 5.67 		22.5 		1.34
v 5.381 		21.913 		1.34
v 5.17 		21.294 		1.34
v 5.043 		20.653 		1.34
v 4.39 		15.695 		2.929
v 5 		15 		2.929
v 6.173 		20 		0.761
v 5.695 		14.39 		2.929
v 5.17 		16.294 		2.066
v 5.695 		15.695 		2.066
v 6.294 		15.17 		2.066
v 6.956 		14.728 		2.066
v 7.67 		14.376 		2.066
v 6.464 		13.876 		2.929
v 7.294 		13.467 		2.929
v 8.17 		13.17 		2.929
v 12.566 		19.662 		0.341
v 6.294 		24.83 		37.934
v 12.588 		20 		0.341
v 6.686 		11.999 		5
v 7.759 		11.635 		5
v 12.566 		20.338 		0.341
v 7.294 		26.533 		37.071
v 6.464 		26.124 		37.071
v 5.695 		25.61 		37.071
v 13.536 		18.536 		0.761
v 11.913 		23.314 		39.239
v 17.866 		13.964 		31.305
v 5 		25 		37.071
v 11.464 		23.536 		39.239
v 18.586 		15.043 		31.305
v 10.99 		23.696 		39.239
v 19.16 		16.206 		31.305
v 2.5 		15.67 		5
v 3.129 		14.728 		5
v 3.876 		13.876 		5
v 7.947 		27.663 		36.088
v 6.964 		27.33 		36.088
v 6.033 		26.871 		36.088
v 10.5 		23.794 		39.239
v 7.759 		28.365 		35
v 18.586 		24.957 		8.695
v 18.66 		25 		10
v 18.8693 		24.576 		10
v 6.686 		28.001 		35
v 14.83 		16.294 		37.934
v 17.866 		26.036 		8.695
v 15 		15 		37.071
v 5.67 		27.5 		35
v 17.934 		26.088 		10
v 17.9371 		26.0833 		10
v 15.61 		15.695 		37.071
v 10 		22.588 		39.659
v 4.728 		26.871 		35
v 9.662 		22.566 		39.659
v 10 		23.827 		39.239
v 17.011 		27.011 		8.695
v 17.071 		27.071 		10
v 9.5 		23.794 		39.239
v 16.384 		27.6741 		10
v 18.365 		24.83 		7.412
v 9.01 		23.696 		39.239
v 17.663 		25.88 		7.412
v 8.536 		23.536 		39.239
v 16.83 		26.83 		7.412
v 18.001 		24.619 		6.173
v 17.33 		25.624 		6.173
v 16.533 		26.533 		6.173
v 12.053 		21.576 		39.659
v 11.83 		21.83 		39.659
v 16.871 		25.272 		5
v 11.576 		22.053 		39.659
v 11.294 		22.241 		39.659
v 19.83 		21.294 		8.695
v 19.914 		21.305 		10
v 19.9684 		20.48 		10
v 19.577 		22.566 		8.695
v 10.99 		22.391 		39.659
v 19.659 		22.588 		10
v 19.16 		23.794 		8.695
v 10.67 		22.5 		39.659
v 19.239 		23.827 		10
v 19.2391 		23.8266 		10
v 19.577 		21.261 		7.412
v 19.33 		22.5 		7.412
v 18.924 		23.696 		7.412
v 19.16 		21.206 		6.173
v 18.924 		22.391 		6.173
v 18.536 		23.536 		6.173
v 12.241 		21.294 		39.659
v 19.577 		17.434 		8.695
v 19.659 		17.412 		10
v 11.206 		20.5 		39.914
v 19.83 		18.706 		8.695
v 19.914 		18.695 		10
v 11.13 		20.653 		39.914
v 11.036 		20.795 		39.914
v 19.914 		20 		8.695
v 10.923 		20.923 		39.914
v 10.795 		21.036 		39.914
v 20 		20 		10
v 19.9994 		19.9902 		10
v 10.653 		21.13 		39.914
v 10.5 		21.206 		39.914
v 10.338 		21.261 		39.914
v 19.33 		17.5 		7.412
v 19.577 		18.739 		7.412
v 19.659 		20 		7.412
v 3.129 		16.033 		3.912
v 13.696 		19.01 		0.761
v 3.706 		15.17 		3.912
v 12.391 		19.01 		0.341
v 12.5 		19.33 		0.341
v 14.619 		18.087 		1.34
v 6.956 		16.033 		1.34
v 7.5 		15.67 		1.34
v 13.536 		16.464 		1.34
v 8.087 		15.381 		1.34
v 13.967 		16.956 		1.34
v 14.33 		17.5 		1.34
v 12.33 		16.964 		0.761
v 12.706 		17.294 		0.761
v 13.036 		17.67 		0.761
v 13.314 		18.087 		0.761
v 5.17 		26.294 		36.088
v 4.39 		25.61 		36.088
v 3.706 		24.83 		36.088
v 3.876 		26.124 		35
v 12.5 		15.67 		38.66
v 3.129 		25.272 		35
v 13.044 		16.033 		38.66
v 12.33 		14.376 		37.934
v 8.087 		23.314 		39.239
v 7.67 		23.036 		39.239
v 7.294 		22.706 		39.239
v 8.17 		21.83 		39.659
v 7.947 		21.576 		39.659
v 6.964 		22.33 		39.239
v 6.686 		21.913 		39.239
v 7.759 		21.294 		39.659
v 7.609 		20.99 		39.659
v 7.5 		20.67 		39.659
v 6.464 		21.464 		39.239
v 6.304 		20.99 		39.239
v 6.206 		20.5 		39.239
v 7.5 		24.33 		38.66
v 6.956 		23.967 		38.66
v 9.33 		22.5 		39.659
v 6.464 		23.536 		38.66
v 9.01 		22.391 		39.659
v 6.033 		23.044 		38.66
v 8.706 		22.241 		39.659
v 8.424 		22.053 		39.659
v 5.695 		24.305 		37.934
v 5.17 		23.706 		37.934
v 4.728 		23.044 		37.934
v 4.39 		24.305 		37.071
v 10.17 		21.294 		39.914
v 10 		21.305 		39.914
v 9.83 		21.294 		39.914
v 9.662 		21.261 		39.914
v 9.5 		21.206 		39.914
v 5.67 		22.5 		38.66
v 9.347 		21.13 		39.914
v 5.381 		21.913 		38.66
v 5.17 		21.294 		38.66
v 5.043 		20.653 		38.66
v 13.044 		14.728 		37.934
v 4.376 		22.33 		37.934
v 13.706 		15.17 		37.934
v 4.12 		21.576 		37.934
v 14.305 		15.695 		37.934
v 9.205 		21.036 		39.914
v 9.077 		20.923 		39.914
v 8.964 		20.795 		39.914
v 8.87 		20.653 		39.914
v 8.794 		20.5 		39.914
v 14.305 		14.39 		37.071
v 11.294 		19.83 		0.086
v 11.305 		20 		0.086
v 11.294 		20.17 		0.086
v 11.206 		19.5 		0.086
v 12.566 		19.662 		39.659
v 11.261 		19.662 		0.086
v 12.588 		20 		39.659
v 11.261 		20.338 		0.086
v 12.566 		20.338 		39.659
v 13.794 		19.5 		39.239
v 13.827 		20 		39.239
v 12.706 		13.467 		37.071
v 13.536 		13.876 		37.071
v 13.036 		12.67 		36.088
v 13.967 		13.129 		36.088
v 14.83 		13.706 		36.088
v 15.61 		14.39 		36.088
v 16.294 		15.17 		36.088
v 14.33 		12.5 		35
v 15.272 		13.129 		35
v 16.124 		13.876 		35
v 13.314 		11.999 		35
v 9.01 		16.304 		39.239
v 9.5 		16.206 		39.239
v 10 		16.173 		39.239
v 10.5 		16.206 		39.239
v 10.99 		16.304 		39.239
v 8.706 		15.17 		38.66
v 9.347 		15.043 		38.66
v 10 		15 		38.66
v 10.653 		15.043 		38.66
v 11.294 		15.17 		38.66
v 11.913 		15.381 		38.66
v 10.795 		13.964 		37.934
v 11.576 		14.12 		37.934
v 10.923 		12.989 		37.071
v 11.83 		13.17 		37.071
v 3.876 		23.536 		37.071
v 12.241 		18.706 		0.341
v 3.467 		22.706 		37.071
v 3.17 		21.83 		37.071
v 10.338 		18.739 		0.086
v 10.5 		18.794 		0.086
v 10.653 		18.87 		0.086
v 10.795 		18.964 		0.086
v 10.923 		19.077 		0.086
v 11.036 		19.205 		0.086
v 11.13 		19.347 		0.086
v 18.536 		16.464 		6.173
v 18.924 		17.609 		6.173
v 19.16 		18.794 		6.173
v 19.239 		20 		6.173
v 18.586 		21.13 		5
v 18.365 		22.241 		5
v 18.001 		23.314 		5
v 17.5 		24.33 		5
v 17.866 		21.036 		3.912
v 17.663 		22.053 		3.912
v 17.33 		23.036 		3.912
v 16.871 		23.967 		3.912
v 17.011 		20.923 		2.929
v 16.83 		21.83 		2.929
v 16.533 		22.706 		2.929
v 18.001 		16.686 		5
v 18.365 		17.759 		5
v 18.586 		18.87 		5
v 18.66 		20 		5
v 17.33 		16.964 		3.912
v 17.663 		17.947 		3.912
v 17.866 		18.964 		3.912
v 17.934 		20 		3.912
v 16.533 		17.294 		2.929
v 16.83 		18.17 		2.929
v 17.011 		19.077 		2.929
v 17.071 		20 		2.929
v 13.794 		29.16 		8.695
v 13.827 		29.239 		10
v 13.8318 		29.2366 		10
v 14.9757 		28.672 		10
v 12.566 		29.577 		8.695
v 12.588 		29.659 		10
v 13.696 		28.924 		7.412
v 12.5 		29.33 		7.412
v 12.391 		28.924 		6.173
v 16.036 		27.866 		8.695
v 16.088 		27.934 		10
v 16.088 		27.934 		10
v 14.957 		28.586 		8.695
v 15 		28.66 		10
v 8.424 		14.12 		37.934
v 9.205 		13.964 		37.934
v 10 		13.912 		37.934
v 9.077 		12.989 		37.071
v 10 		12.929 		37.071
v 12.053 		12.337 		36.088
v 8.964 		12.134 		36.088
v 10 		12.066 		36.088
v 11.036 		12.134 		36.088
v 8.87 		11.414 		35
v 12.241 		11.635 		35
v 15.88 		27.663 		7.412
v 14.83 		28.365 		7.412
v 15.624 		27.33 		6.173
v 14.619 		28.001 		6.173
v 13.536 		28.536 		6.173
v 11.294 		29.83 		8.695
v 11.305 		29.914 		10
v 10 		29.914 		8.695
v 10 		30 		10
v 10.0098 		29.9994 		10
v 8.706 		29.83 		8.695
v 8.695 		29.914 		10
v 10 		29.659 		7.412
# 1185 vertices

g group_0_40919

usemtl color_40919
s 0

f 3 	178 	1
f 3 	180 	178
f 178 	181 	1
f 4 	180 	3
f 2 	7 	5
f 2 	1 	7
f 7 	8 	5
f 5 	8 	6
f 6 	9 	13
f 8 	9 	6
f 7 	1 	181
f 11 	5 	12
f 5 	6 	12
f 14 	13 	15
f 9 	15 	13
f 15 	16 	14
f 14 	16 	18
f 16 	15 	287
f 18 	19 	17
f 18 	313 	19
f 16 	313 	18
f 21 	12 	6
f 6 	13 	21
f 21 	13 	22
f 23 	22 	14
f 13 	14 	22
f 14 	18 	23
f 23 	18 	17
f 26 	24 	25
f 25 	24 	27
f 27 	28 	29
f 27 	29 	25
f 30 	31 	28
f 27 	30 	28
f 31 	30 	32
f 32 	33 	34
f 32 	34 	31
f 24 	35 	36
f 35 	39 	40
f 35 	40 	36
f 36 	27 	24
f 27 	37 	30
f 27 	36 	37
f 30 	37 	38
f 30 	38 	32
f 36 	40 	41
f 41 	37 	36
f 39 	42 	40
f 40 	43 	41
f 43 	40 	42
f 41 	43 	1136
f 44 	47 	48
f 44 	48 	46
f 50 	69 	51
f 49 	68 	50
f 49 	1025 	68
f 69 	50 	68
f 55 	54 	53
f 52 	72 	47
f 56 	341 	57
f 55 	153 	54
f 59 	58 	63
f 59 	63 	65
f 59 	65 	60
f 79 	58 	72
f 66 	67 	62
f 79 	63 	58
f 62 	67 	64
f 63 	224 	225
f 63 	225 	65
f 61 	66 	62
f 66 	61 	130
f 224 	63 	79
f 139 	67 	66
f 139 	250 	67
f 51 	70 	52
f 51 	69 	70
f 72 	52 	70
f 71 	130 	61
f 940 	69 	68
f 70 	69 	77
f 70 	78 	72
f 77 	78 	70
f 72 	78 	79
f 77 	80 	218
f 86 	104 	577
f 1021 	81 	1051
f 218 	78 	77
f 92 	82 	81
f 91 	81 	1021
f 91 	92 	81
f 82 	93 	85
f 82 	92 	93
f 1079 	89 	88
f 581 	103 	106
f 581 	106 	107
f 96 	97 	843
f 96 	843 	837
f 103 	577 	104
f 106 	109 	107
f 99 	1077 	88
f 101 	108 	111
f 101 	111 	102
f 102 	112 	105
f 102 	111 	112
f 93 	113 	85
f 85 	113 	87
f 113 	376 	87
f 91 	587 	92
f 587 	591 	92
f 92 	591 	93
f 113 	93 	595
f 93 	591 	595
f 114 	149 	150
f 105 	112 	97
f 682 	121 	124
f 105 	97 	96
f 118 	112 	111
f 117 	108 	116
f 116 	138 	117
f 116 	137 	138
f 111 	108 	117
f 118 	111 	117
f 97 	112 	119
f 119 	112 	118
f 126 	684 	124
f 682 	585 	123
f 121 	682 	123
f 125 	94 	122
f 125 	95 	94
f 101 	95 	125
f 685 	359 	360
f 101 	1172 	95
f 416 	127 	120
f 120 	127 	128
f 120 	128 	122
f 129 	125 	122
f 129 	122 	128
f 125 	129 	108
f 359 	685 	362
f 125 	108 	101
f 128 	133 	129
f 116 	108 	129
f 74 	130 	71
f 127 	131 	132
f 127 	132 	128
f 133 	128 	132
f 133 	116 	129
f 131 	426 	142
f 131 	143 	132
f 73 	134 	74
f 142 	143 	131
f 74 	135 	130
f 133 	137 	116
f 74 	134 	135
f 130 	135 	136
f 135 	146 	136
f 66 	130 	136
f 138 	140 	117
f 136 	139 	66
f 117 	140 	118
f 118 	141 	119
f 118 	140 	141
f 132 	143 	144
f 132 	144 	133
f 114 	148 	149
f 145 	135 	134
f 146 	135 	145
f 136 	147 	139
f 136 	146 	147
f 147 	268 	139
f 146 	305 	147
f 115 	114 	150
f 115 	150 	210
f 54 	154 	56
f 151 	156 	152
f 155 	156 	151
f 55 	152 	153
f 154 	54 	153
f 64 	67 	155
f 64 	155 	151
f 152 	157 	153
f 156 	157 	152
f 157 	158 	153
f 153 	158 	154
f 67 	250 	155
f 43 	42 	159
f 26 	160 	24
f 171 	24 	160
f 171 	170 	24
f 35 	24 	170
f 161 	35 	170
f 39 	35 	161
f 39 	161 	162
f 281 	39 	162
f 162 	280 	281
f 164 	163 	165
f 163 	174 	165
f 163 	173 	174
f 165 	166 	167
f 165 	167 	164
f 168 	169 	166
f 165 	168 	166
f 169 	168 	170
f 170 	171 	172
f 170 	172 	169
f 175 	168 	165
f 165 	174 	175
f 168 	175 	161
f 162 	161 	175
f 168 	161 	170
f 173 	177 	174
f 176 	177 	173
f 174 	177 	179
f 175 	174 	179
f 175 	179 	162
f 182 	7 	181
f 176 	546 	177
f 184 	180 	4
f 185 	409 	411
f 45 	184 	183
f 188 	195 	196
f 45 	180 	184
f 150 	231 	210
f 186 	191 	192
f 191 	213 	192
f 186 	192 	187
f 187 	195 	188
f 150 	228 	231
f 187 	192 	195
f 195 	192 	214
f 149 	1039 	230
f 200 	201 	203
f 201 	200 	204
f 200 	258 	204
f 204 	206 	207
f 204 	207 	201
f 208 	209 	206
f 208 	206 	204
f 205 	219 	216
f 221 	216 	219
f 163 	209 	208
f 198 	115 	210
f 198 	211 	202
f 210 	211 	198
f 213 	191 	212
f 192 	213 	214
f 431 	213 	212
f 219 	205 	202
f 195 	214 	215
f 195 	215 	196
f 150 	149 	228
f 215 	185 	196
f 228 	149 	230
f 215 	409 	185
f 211 	219 	202
f 78 	218 	220
f 216 	222 	217
f 78 	220 	79
f 221 	222 	216
f 222 	223 	217
f 220 	224 	79
f 232 	224 	220
f 186 	873 	65
f 186 	65 	225
f 211 	239 	219
f 219 	244 	221
f 220 	218 	229
f 221 	249 	222
f 220 	229 	232
f 225 	233 	191
f 225 	191 	186
f 227 	218 	80
f 229 	218 	227
f 237 	210 	231
f 225 	224 	233
f 233 	224 	232
f 248 	234 	44
f 228 	251 	231
f 231 	252 	237
f 251 	252 	231
f 831 	235 	227
f 248 	44 	98
f 98 	46 	99
f 227 	236 	229
f 44 	46 	98
f 227 	235 	236
f 51 	52 	609
f 229 	236 	238
f 210 	237 	211
f 234 	47 	44
f 47 	234 	52
f 229 	238 	232
f 237 	239 	211
f 232 	238 	242
f 239 	244 	219
f 255 	157 	156
f 244 	249 	221
f 271 	222 	249
f 240 	597 	241
f 250 	253 	155
f 252 	254 	237
f 155 	253 	156
f 243 	604 	245
f 253 	255 	156
f 239 	237 	254
f 157 	256 	158
f 246 	609 	247
f 255 	256 	157
f 248 	247 	234
f 609 	234 	247
f 268 	250 	139
f 253 	270 	255
f 251 	265 	252
f 264 	265 	251
f 209 	163 	164
f 230 	259 	228
f 259 	230 	260
f 259 	251 	228
f 258 	200 	257
f 204 	258 	261
f 260 	262 	259
f 258 	274 	261
f 260 	263 	262
f 261 	208 	204
f 259 	264 	251
f 262 	264 	259
f 208 	261 	173
f 266 	254 	252
f 173 	163 	208
f 265 	266 	252
f 137 	133 	144
f 250 	269 	253
f 268 	269 	250
f 270 	253 	269
f 249 	276 	271
f 258 	257 	272
f 271 	223 	222
f 257 	267 	272
f 273 	226 	223
f 274 	258 	272
f 271 	273 	223
f 272 	608 	274
f 275 	226 	273
f 261 	176 	173
f 261 	274 	176
f 267 	605 	272
f 608 	272 	605
f 273 	271 	278
f 271 	276 	278
f 273 	279 	275
f 273 	278 	279
f 7 	182 	8
f 281 	42 	39
f 182 	283 	8
f 353 	278 	276
f 283 	9 	8
f 285 	15 	9
f 283 	285 	9
f 277 	284 	286
f 279 	278 	355
f 15 	285 	287
f 288 	239 	254
f 277 	286 	280
f 280 	286 	290
f 244 	239 	288
f 288 	291 	244
f 280 	290 	281
f 289 	189 	313
f 292 	42 	281
f 281 	290 	292
f 249 	244 	291
f 292 	159 	42
f 291 	276 	249
f 282 	467 	284
f 282 	466 	467
f 288 	254 	293
f 288 	293 	294
f 288 	294 	291
f 291 	296 	276
f 291 	294 	296
f 270 	299 	255
f 255 	299 	256
f 299 	301 	256
f 1016 	303 	304
f 295 	1114 	297
f 199 	1114 	295
f 298 	297 	1115
f 297 	1114 	1115
f 298 	1115 	1116
f 298 	1116 	300
f 302 	1118 	303
f 268 	147 	307
f 147 	305 	307
f 268 	307 	309
f 268 	309 	269
f 632 	295 	297
f 269 	310 	270
f 731 	297 	298
f 309 	310 	269
f 731 	298 	306
f 310 	311 	270
f 306 	300 	308
f 306 	298 	300
f 299 	270 	311
f 299 	312 	301
f 311 	312 	299
f 313 	314 	20
f 19 	313 	20
f 314 	315 	20
f 312 	524 	301
f 490 	492 	305
f 305 	492 	307
f 316 	194 	317
f 504 	312 	311
f 504 	507 	312
f 289 	313 	16
f 16 	287 	289
f 320 	134 	73
f 313 	189 	314
f 314 	190 	315
f 190 	314 	189
f 315 	190 	193
f 319 	322 	320
f 319 	321 	322
f 320 	323 	134
f 193 	316 	315
f 320 	322 	323
f 193 	194 	316
f 145 	134 	323
f 321 	346 	322
f 317 	194 	197
f 318 	317 	197
f 318 	199 	295
f 318 	197 	199
f 323 	350 	145
f 20 	315 	324
f 325 	472 	326
f 324 	315 	316
f 743 	316 	317
f 743 	317 	744
f 744 	317 	318
f 1184 	328 	330
f 329 	330 	328
f 328 	331 	329
f 329 	331 	333
f 329 	333 	334
f 328 	338 	331
f 336 	338 	328
f 332 	335 	337
f 341 	336 	57
f 336 	348 	338
f 341 	348 	336
f 341 	380 	348
f 83 	84 	343
f 333 	343 	84
f 331 	343 	333
f 343 	354 	83
f 83 	354 	86
f 343 	331 	344
f 338 	344 	331
f 344 	345 	343
f 344 	352 	345
f 345 	354 	343
f 347 	323 	322
f 322 	346 	347
f 338 	348 	349
f 350 	323 	347
f 347 	465 	350
f 338 	349 	344
f 350 	351 	145
f 349 	352 	344
f 145 	351 	146
f 382 	352 	349
f 353 	276 	296
f 353 	355 	278
f 104 	354 	103
f 86 	354 	104
f 103 	356 	106
f 279 	355 	357
f 354 	356 	103
f 355 	353 	396
f 356 	358 	106
f 684 	362 	685
f 293 	254 	266
f 75 	76 	263
f 106 	358 	107
f 106 	107 	109
f 260 	75 	263
f 107 	361 	110
f 687 	360 	363
f 358 	361 	107
f 361 	525 	110
f 100 	364 	90
f 110 	525 	123
f 684 	126 	362
f 370 	402 	265
f 367 	369 	356
f 402 	266 	265
f 356 	369 	358
f 371 	361 	358
f 365 	263 	76
f 365 	366 	263
f 365 	374 	366
f 365 	376 	374
f 354 	367 	356
f 263 	366 	262
f 354 	345 	367
f 366 	368 	262
f 367 	373 	369
f 262 	368 	264
f 264 	370 	265
f 369 	371 	358
f 557 	559 	364
f 370 	264 	368
f 559 	560 	364
f 345 	372 	367
f 560 	561 	364
f 352 	372 	345
f 372 	373 	367
f 365 	76 	87
f 373 	375 	369
f 691 	690 	34
f 245 	246 	364
f 366 	377 	368
f 369 	375 	371
f 246 	247 	364
f 374 	377 	366
f 377 	378 	368
f 247 	248 	364
f 248 	98 	364
f 28 	689 	29
f 98 	99 	364
f 370 	368 	378
f 373 	372 	521
f 99 	88 	364
f 89 	364 	88
f 90 	364 	89
f 33 	691 	34
f 376 	365 	87
f 364 	990 	991
f 379 	341 	56
f 154 	379 	56
f 379 	380 	341
f 374 	774 	377
f 994 	997 	364
f 997 	998 	364
f 998 	999 	364
f 348 	381 	349
f 776 	432 	378
f 380 	381 	348
f 381 	382 	349
f 376 	113 	771
f 1053 	1054 	364
f 1054 	1055 	364
f 1055 	1056 	364
f 1056 	1058 	364
f 154 	158 	385
f 384 	386 	383
f 1058 	1067 	364
f 1067 	1068 	364
f 385 	379 	154
f 379 	387 	380
f 1068 	1069 	364
f 385 	387 	379
f 1069 	1070 	364
f 380 	389 	381
f 1070 	1071 	364
f 387 	389 	380
f 1071 	542 	364
f 389 	391 	381
f 357 	1162 	279
f 542 	543 	364
f 543 	469 	364
f 469 	470 	364
f 141 	26 	688
f 470 	471 	364
f 353 	394 	396
f 473 	364 	471
f 25 	688 	26
f 355 	397 	357
f 390 	294 	293
f 293 	403 	390
f 392 	294 	390
f 381 	391 	382
f 391 	393 	382
f 296 	294 	392
f 296 	394 	353
f 388 	395 	384
f 384 	395 	386
f 166 	138 	167
f 296 	392 	394
f 397 	355 	396
f 400 	396 	394
f 398 	390 	406
f 390 	398 	392
f 392 	398 	399
f 392 	399 	394
f 394 	399 	400
f 141 	160 	26
f 414 	400 	399
f 401 	397 	396
f 141 	140 	172
f 396 	400 	401
f 141 	171 	160
f 171 	141 	172
f 164 	137 	144
f 400 	414 	416
f 400 	416 	401
f 402 	403 	266
f 293 	266 	403
f 370 	378 	404
f 378 	432 	404
f 206 	143 	207
f 402 	370 	404
f 402 	405 	403
f 404 	405 	402
f 233 	232 	242
f 403 	406 	390
f 233 	212 	191
f 405 	406 	403
f 242 	212 	233
f 235 	451 	452
f 235 	452 	236
f 406 	405 	435
f 453 	238 	236
f 407 	398 	406
f 236 	452 	453
f 407 	406 	435
f 398 	407 	412
f 435 	410 	407
f 407 	410 	418
f 399 	398 	412
f 215 	408 	409
f 409 	415 	417
f 409 	417 	411
f 410 	424 	418
f 681 	185 	411
f 434 	413 	408
f 412 	414 	399
f 408 	413 	415
f 414 	421 	416
f 409 	408 	415
f 415 	413 	422
f 401 	416 	120
f 407 	418 	412
f 412 	418 	419
f 412 	419 	414
f 421 	414 	419
f 127 	416 	421
f 420 	422 	413
f 415 	422 	423
f 418 	425 	419
f 415 	423 	417
f 421 	131 	127
f 420 	428 	422
f 420 	427 	428
f 425 	418 	424
f 426 	421 	419
f 422 	429 	423
f 425 	426 	419
f 131 	421 	426
f 429 	422 	428
f 424 	649 	425
f 431 	212 	430
f 404 	433 	405
f 434 	214 	213
f 432 	433 	404
f 213 	431 	434
f 433 	435 	405
f 408 	214 	434
f 433 	544 	435
f 215 	214 	408
f 430 	436 	439
f 438 	440 	432
f 430 	439 	431
f 431 	439 	441
f 440 	433 	432
f 434 	431 	441
f 520 	382 	393
f 441 	413 	434
f 448 	391 	389
f 439 	436 	444
f 391 	510 	393
f 413 	441 	420
f 442 	385 	158
f 158 	256 	442
f 443 	444 	436
f 442 	445 	385
f 439 	444 	446
f 439 	446 	441
f 385 	445 	387
f 420 	441 	446
f 387 	447 	389
f 445 	447 	387
f 443 	555 	444
f 443 	552 	555
f 450 	292 	290
f 450 	290 	449
f 292 	450 	332
f 292 	332 	159
f 455 	449 	463
f 454 	242 	238
f 453 	454 	238
f 455 	450 	449
f 430 	242 	454
f 450 	455 	335
f 436 	430 	454
f 364 	473 	571
f 430 	212 	242
f 450 	335 	332
f 364 	571 	572
f 451 	456 	452
f 364 	572 	574
f 848 	456 	451
f 452 	457 	453
f 452 	456 	457
f 453 	457 	459
f 454 	453 	459
f 454 	459 	436
f 460 	620 	461
f 305 	146 	351
f 461 	462 	467
f 346 	477 	464
f 458 	463 	449
f 458 	462 	463
f 464 	347 	346
f 243 	245 	364
f 465 	347 	464
f 465 	489 	350
f 465 	515 	489
f 350 	489 	351
f 458 	286 	284
f 284 	467 	458
f 286 	458 	449
f 472 	325 	468
f 449 	290 	286
f 326 	472 	474
f 474 	327 	326
f 466 	460 	461
f 321 	327 	475
f 327 	474 	475
f 468 	482 	472
f 321 	475 	346
f 474 	472 	483
f 474 	483 	476
f 475 	474 	476
f 346 	475 	477
f 475 	476 	477
f 476 	511 	477
f 478 	484 	479
f 386 	484 	478
f 477 	513 	464
f 943 	479 	480
f 482 	468 	481
f 383 	386 	478
f 472 	482 	483
f 481 	485 	482
f 484 	486 	479
f 481 	916 	485
f 482 	485 	487
f 480 	479 	486
f 482 	487 	483
f 486 	496 	480
f 395 	488 	386
f 484 	386 	488
f 501 	503 	486
f 305 	351 	490
f 395 	576 	488
f 351 	489 	490
f 948 	480 	491
f 307 	494 	309
f 492 	494 	307
f 516 	489 	515
f 480 	496 	491
f 491 	497 	493
f 496 	497 	491
f 493 	498 	495
f 497 	498 	493
f 492 	499 	494
f 499 	508 	494
f 496 	486 	503
f 505 	506 	497
f 497 	506 	498
f 310 	309 	500
f 501 	486 	484
f 494 	500 	309
f 484 	488 	501
f 500 	502 	310
f 502 	311 	310
f 502 	504 	311
f 509 	502 	500
f 505 	497 	496
f 503 	505 	496
f 500 	494 	508
f 501 	488 	577
f 500 	508 	509
f 447 	448 	389
f 504 	661 	507
f 448 	510 	391
f 256 	301 	442
f 301 	512 	442
f 477 	511 	513
f 301 	524 	512
f 442 	512 	445
f 512 	514 	445
f 465 	464 	515
f 464 	513 	515
f 445 	514 	447
f 517 	448 	447
f 514 	517 	447
f 516 	518 	489
f 489 	518 	490
f 490 	519 	492
f 518 	519 	490
f 519 	499 	492
f 513 	533 	515
f 352 	520 	372
f 352 	382 	520
f 520 	521 	372
f 520 	522 	521
f 393 	522 	520
f 483 	523 	476
f 487 	523 	483
f 523 	511 	476
f 512 	855 	514
f 855 	512 	524
f 525 	121 	123
f 121 	526 	124
f 525 	526 	121
f 511 	531 	513
f 124 	527 	126
f 533 	513 	531
f 526 	527 	124
f 487 	485 	528
f 527 	565 	126
f 529 	487 	528
f 487 	529 	523
f 532 	525 	361
f 532 	534 	525
f 525 	534 	526
f 523 	530 	511
f 523 	529 	530
f 531 	511 	530
f 361 	371 	532
f 533 	535 	515
f 526 	536 	527
f 534 	536 	526
f 515 	535 	516
f 516 	537 	518
f 535 	537 	516
f 538 	532 	371
f 537 	539 	518
f 371 	375 	538
f 532 	538 	540
f 538 	629 	540
f 518 	539 	519
f 532 	540 	534
f 540 	541 	534
f 466 	461 	467
f 467 	462 	458
f 534 	541 	536
f 440 	544 	433
f 457 	548 	459
f 436 	459 	443
f 440 	558 	544
f 469 	114 	115
f 176 	610 	546
f 435 	544 	410
f 547 	456 	545
f 469 	115 	470
f 179 	177 	277
f 115 	198 	470
f 177 	546 	277
f 437 	551 	438
f 457 	456 	547
f 470 	198 	471
f 179 	277 	280
f 162 	179 	280
f 548 	457 	547
f 553 	440 	438
f 610 	282 	546
f 471 	202 	473
f 284 	277 	546
f 440 	553 	558
f 546 	282 	284
f 1071 	1036 	542
f 443 	459 	548
f 542 	148 	543
f 1036 	148 	542
f 543 	114 	469
f 545 	635 	637
f 148 	114 	543
f 550 	551 	437
f 364 	574 	575
f 548 	552 	443
f 554 	364 	575
f 364 	554 	556
f 551 	553 	438
f 556 	557 	364
f 668 	669 	553
f 553 	669 	558
f 544 	567 	410
f 240 	364 	561
f 544 	558 	567
f 364 	240 	241
f 567 	424 	410
f 243 	364 	241
f 538 	627 	629
f 554 	575 	633
f 554 	633 	636
f 554 	636 	556
f 556 	639 	557
f 563 	466 	549
f 556 	636 	639
f 569 	460 	563
f 564 	360 	359
f 563 	460 	466
f 565 	564 	359
f 549 	466 	282
f 564 	566 	360
f 582 	568 	562
f 562 	568 	569
f 360 	566 	363
f 566 	781 	363
f 585 	506 	505
f 563 	562 	569
f 126 	565 	362
f 359 	362 	565
f 395 	388 	573
f 569 	628 	460
f 570 	573 	388
f 580 	584 	564
f 573 	576 	395
f 471 	198 	202
f 584 	566 	564
f 473 	205 	571
f 579 	580 	565
f 473 	202 	205
f 579 	565 	527
f 205 	216 	571
f 577 	488 	576
f 579 	592 	593
f 501 	577 	581
f 571 	216 	572
f 536 	592 	579
f 501 	581 	503
f 579 	593 	580
f 217 	574 	572
f 503 	583 	505
f 565 	580 	564
f 581 	583 	503
f 583 	585 	505
f 578 	590 	582
f 495 	587 	91
f 579 	527 	536
f 588 	590 	578
f 587 	601 	591
f 561 	589 	594
f 582 	590 	568
f 599 	601 	587
f 561 	594 	240
f 580 	596 	584
f 593 	596 	580
f 597 	240 	594
f 495 	498 	599
f 596 	598 	584
f 495 	599 	587
f 741 	590 	588
f 600 	243 	241
f 536 	541 	592
f 592 	726 	593
f 591 	602 	595
f 241 	597 	600
f 604 	243 	600
f 605 	267 	603
f 245 	606 	246
f 567 	670 	607
f 606 	245 	604
f 606 	609 	246
f 274 	610 	176
f 611 	522 	393
f 393 	510 	611
f 274 	608 	610
f 612 	510 	448
f 448 	517 	612
f 603 	614 	605
f 612 	615 	510
f 603 	613 	614
f 616 	605 	614
f 594 	621 	597
f 611 	510 	615
f 615 	617 	611
f 616 	608 	605
f 597 	621 	623
f 608 	616 	549
f 600 	597 	623
f 623 	604 	600
f 604 	50 	606
f 608 	549 	610
f 610 	549 	282
f 604 	49 	50
f 50 	51 	606
f 613 	578 	582
f 609 	606 	51
f 613 	582 	614
f 234 	609 	52
f 614 	562 	616
f 562 	614 	582
f 615 	612 	858
f 616 	563 	549
f 563 	616 	562
f 620 	460 	628
f 461 	622 	462
f 461 	620 	622
f 463 	462 	1011
f 594 	1099 	621
f 618 	897 	619
f 623 	49 	604
f 620 	1015 	622
f 624 	375 	373
f 624 	373 	521
f 624 	627 	375
f 568 	626 	569
f 568 	625 	626
f 375 	627 	538
f 626 	628 	569
f 572 	216 	217
f 217 	630 	574
f 217 	223 	630
f 574 	630 	575
f 446 	444 	634
f 444 	555 	634
f 427 	446 	634
f 575 	630 	633
f 427 	420 	446
f 633 	651 	636
f 547 	545 	637
f 547 	638 	548
f 547 	637 	638
f 548 	638 	552
f 641 	559 	557
f 557 	639 	641
f 643 	560 	559
f 209 	164 	144
f 643 	559 	641
f 560 	643 	589
f 144 	143 	209
f 560 	589 	561
f 640 	647 	642
f 646 	647 	640
f 647 	648 	642
f 223 	226 	630
f 633 	630 	226
f 642 	648 	644
f 651 	633 	226
f 643 	641 	1097
f 567 	607 	424
f 649 	424 	607
f 673 	646 	645
f 425 	649 	650
f 425 	650 	426
f 142 	426 	650
f 629 	631 	540
f 698 	629 	627
f 636 	651 	1095
f 655 	729 	648
f 636 	1095 	639
f 641 	639 	1096
f 648 	647 	655
f 1095 	1096 	639
f 647 	654 	655
f 651 	226 	275
f 142 	650 	203
f 659 	504 	502
f 509 	659 	502
f 659 	661 	504
f 662 	655 	654
f 658 	662 	654
f 507 	664 	862
f 507 	661 	664
f 660 	666 	663
f 652 	653 	550
f 550 	653 	551
f 791 	499 	519
f 668 	553 	551
f 499 	791 	792
f 653 	668 	551
f 499 	792 	508
f 567 	558 	670
f 558 	669 	670
f 196 	185 	671
f 661 	659 	796
f 672 	673 	645
f 654 	647 	646
f 673 	654 	646
f 671 	681 	672
f 671 	185 	681
f 681 	656 	672
f 681 	699 	656
f 689 	688 	29
f 673 	672 	656
f 656 	658 	673
f 673 	658 	654
f 201 	207 	142
f 124 	683 	682
f 124 	684 	683
f 360 	686 	685
f 360 	687 	686
f 648 	729 	692
f 541 	540 	631
f 665 	666 	660
f 692 	814 	693
f 521 	694 	624
f 521 	522 	694
f 694 	696 	624
f 694 	708 	696
f 677 	666 	665
f 624 	696 	627
f 696 	698 	627
f 631 	629 	700
f 698 	700 	629
f 411 	699 	681
f 692 	729 	814
f 656 	699 	701
f 522 	705 	694
f 693 	815 	695
f 699 	709 	701
f 656 	701 	658
f 702 	662 	658
f 701 	702 	658
f 702 	657 	662
f 522 	611 	705
f 611 	617 	705
f 704 	713 	706
f 707 	699 	411
f 705 	708 	694
f 411 	417 	707
f 707 	709 	699
f 696 	710 	698
f 644 	711 	703
f 701 	709 	660
f 708 	710 	696
f 703 	711 	704
f 660 	709 	665
f 710 	712 	698
f 710 	716 	712
f 660 	702 	701
f 711 	713 	704
f 700 	698 	712
f 702 	663 	657
f 713 	722 	706
f 660 	663 	702
f 714 	707 	417
f 706 	722 	717
f 644 	648 	692
f 423 	714 	417
f 714 	715 	707
f 705 	618 	708
f 617 	618 	705
f 644 	692 	711
f 692 	693 	711
f 619 	710 	708
f 618 	619 	708
f 709 	707 	715
f 711 	693 	713
f 619 	716 	710
f 693 	695 	713
f 713 	695 	722
f 715 	665 	709
f 675 	715 	714
f 719 	21 	721
f 717 	724 	718
f 722 	724 	717
f 724 	725 	718
f 718 	725 	720
f 754 	11 	12
f 12 	21 	719
f 721 	22 	723
f 21 	22 	721
f 23 	903 	723
f 722 	697 	724
f 22 	23 	723
f 695 	697 	722
f 827 	725 	724
f 724 	697 	827
f 726 	592 	727
f 593 	728 	596
f 726 	728 	593
f 728 	730 	596
f 741 	632 	625
f 625 	632 	731
f 728 	738 	730
f 734 	738 	728
f 596 	730 	598
f 731 	626 	625
f 628 	626 	306
f 541 	631 	727
f 626 	731 	306
f 628 	306 	308
f 592 	541 	727
f 727 	732 	733
f 628 	308 	620
f 632 	297 	731
f 727 	733 	726
f 733 	734 	726
f 728 	726 	734
f 736 	739 	586
f 737 	750 	740
f 732 	727 	631
f 739 	588 	586
f 631 	700 	732
f 733 	732 	746
f 741 	588 	739
f 750 	384 	740
f 740 	384 	383
f 749 	751 	734
f 734 	751 	738
f 743 	324 	316
f 742 	735 	657
f 657 	663 	742
f 736 	744 	739
f 742 	745 	735
f 743 	744 	736
f 739 	747 	741
f 732 	748 	746
f 739 	744 	747
f 737 	735 	745
f 749 	734 	733
f 741 	747 	632
f 746 	749 	733
f 295 	632 	747
f 747 	318 	295
f 745 	750 	737
f 816 	750 	745
f 751 	752 	738
f 700 	712 	748
f 744 	318 	747
f 748 	732 	700
f 748 	753 	754
f 753 	10 	11
f 753 	11 	754
f 384 	750 	388
f 590 	741 	625
f 816 	388 	750
f 568 	590 	625
f 748 	754 	746
f 666 	755 	663
f 601 	602 	591
f 602 	779 	595
f 760 	758 	759
f 761 	599 	498
f 498 	506 	761
f 759 	758 	762
f 763 	601 	599
f 761 	763 	599
f 763 	764 	601
f 762 	765 	759
f 766 	767 	765
f 765 	762 	766
f 601 	764 	602
f 203 	767 	200
f 766 	200 	767
f 756 	768 	885
f 758 	768 	769
f 768 	775 	769
f 761 	683 	763
f 768 	773 	775
f 758 	769 	762
f 762 	769 	770
f 376 	771 	772
f 771 	778 	772
f 762 	770 	766
f 766 	257 	200
f 766 	770 	257
f 772 	374 	376
f 756 	757 	773
f 772 	774 	374
f 773 	768 	756
f 378 	377 	776
f 774 	776 	377
f 777 	769 	775
f 113 	595 	771
f 777 	770 	769
f 771 	779 	778
f 778 	780 	772
f 770 	777 	267
f 772 	780 	774
f 780 	437 	774
f 770 	267 	257
f 774 	437 	776
f 776 	438 	432
f 437 	438 	776
f 773 	914 	775
f 595 	779 	771
f 779 	821 	778
f 779 	822 	821
f 777 	915 	603
f 603 	267 	777
f 780 	778 	823
f 778 	821 	823
f 783 	781 	782
f 363 	781 	783
f 782 	784 	785
f 781 	784 	782
f 784 	786 	785
f 785 	786 	787
f 785 	787 	788
f 667 	803 	874
f 787 	789 	790
f 786 	789 	787
f 790 	789 	885
f 539 	791 	519
f 790 	885 	793
f 508 	794 	509
f 792 	794 	508
f 509 	795 	659
f 794 	795 	509
f 795 	796 	659
f 661 	796 	797
f 798 	781 	566
f 566 	584 	798
f 781 	799 	784
f 798 	799 	781
f 799 	800 	784
f 795 	45 	796
f 799 	808 	800
f 784 	800 	786
f 801 	789 	786
f 797 	664 	661
f 800 	801 	786
f 802 	667 	664
f 789 	801 	756
f 664 	797 	802
f 802 	803 	667
f 756 	801 	757
f 789 	756 	885
f 584 	598 	798
f 598 	806 	798
f 798 	806 	799
f 806 	808 	799
f 809 	801 	800
f 45 	183 	807
f 808 	809 	800
f 809 	757 	801
f 45 	805 	804
f 807 	805 	45
f 337 	1008 	810
f 339 	810 	811
f 806 	929 	808
f 811 	340 	339
f 812 	342 	340
f 811 	812 	340
f 342 	812 	468
f 663 	755 	742
f 755 	813 	742
f 812 	481 	468
f 468 	325 	342
f 201 	142 	203
f 742 	813 	745
f 810 	818 	811
f 813 	816 	745
f 812 	811 	819
f 814 	815 	693
f 759 	607 	760
f 815 	817 	695
f 481 	812 	819
f 815 	826 	817
f 825 	826 	815
f 695 	817 	697
f 813 	680 	816
f 819 	811 	818
f 570 	388 	816
f 826 	935 	817
f 780 	550 	437
f 820 	729 	655
f 676 	665 	715
f 655 	662 	820
f 675 	676 	715
f 820 	824 	729
f 676 	677 	665
f 678 	666 	677
f 823 	550 	780
f 674 	714 	423
f 729 	824 	814
f 823 	652 	550
f 687 	652 	823
f 824 	825 	814
f 423 	429 	674
f 674 	675 	714
f 602 	764 	822
f 824 	737 	825
f 822 	779 	602
f 814 	825 	815
f 666 	678 	755
f 755 	679 	813
f 687 	823 	821
f 678 	679 	755
f 679 	680 	813
f 820 	662 	657
f 816 	680 	570
f 764 	685 	822
f 820 	735 	824
f 682 	761 	506
f 820 	657 	735
f 585 	682 	506
f 682 	683 	761
f 735 	737 	824
f 763 	683 	684
f 737 	740 	825
f 763 	684 	764
f 685 	764 	684
f 822 	685 	686
f 825 	740 	826
f 740 	383 	826
f 822 	686 	821
f 686 	687 	821
f 829 	720 	832
f 831 	227 	80
f 720 	725 	832
f 833 	839 	841
f 833 	841 	835
f 860 	828 	849
f 849 	859 	860
f 835 	235 	831
f 835 	451 	235
f 839 	846 	841
f 839 	845 	846
f 451 	835 	841
f 837 	845 	839
f 836 	844 	838
f 837 	843 	845
f 836 	842 	844
f 838 	844 	847
f 841 	846 	848
f 841 	848 	451
f 963 	828 	964
f 828 	963 	849
f 845 	925 	846
f 846 	927 	848
f 840 	868 	842
f 456 	848 	545
f 867 	868 	840
f 97 	119 	850
f 842 	868 	870
f 754 	719 	746
f 842 	870 	844
f 12 	719 	754
f 859 	847 	872
f 746 	719 	749
f 847 	859 	849
f 719 	721 	749
f 650 	649 	767
f 749 	721 	751
f 721 	723 	751
f 751 	723 	752
f 723 	903 	752
f 753 	748 	712
f 712 	716 	753
f 853 	854 	851
f 856 	517 	514
f 851 	854 	852
f 514 	855 	856
f 854 	645 	852
f 612 	517 	857
f 672 	645 	854
f 856 	857 	517
f 852 	645 	866
f 857 	858 	612
f 196 	853 	188
f 854 	853 	671
f 672 	854 	671
f 617 	615 	895
f 312 	507 	524
f 860 	861 	828
f 507 	862 	524
f 828 	861 	830
f 524 	862 	855
f 861 	863 	830
f 855 	864 	856
f 862 	864 	855
f 864 	865 	856
f 852 	866 	859
f 859 	866 	860
f 857 	856 	865
f 860 	640 	861
f 866 	640 	860
f 861 	642 	863
f 640 	642 	861
f 642 	644 	863
f 866 	646 	640
f 866 	645 	646
f 667 	864 	862
f 864 	874 	865
f 874 	876 	865
f 858 	857 	869
f 865 	869 	857
f 858 	869 	871
f 872 	847 	844
f 844 	870 	872
f 873 	867 	60
f 862 	664 	667
f 60 	65 	873
f 864 	667 	874
f 867 	873 	875
f 865 	876 	869
f 868 	867 	875
f 868 	877 	870
f 876 	871 	869
f 875 	877 	868
f 877 	851 	870
f 877 	853 	851
f 804 	876 	874
f 803 	804 	874
f 872 	870 	851
f 851 	852 	872
f 852 	859 	872
f 896 	878 	879
f 873 	187 	875
f 878 	884 	879
f 186 	187 	873
f 875 	188 	877
f 187 	188 	875
f 877 	188 	853
f 671 	853 	196
f 876 	881 	871
f 881 	882 	871
f 871 	882 	878
f 363 	783 	687
f 884 	878 	882
f 887 	885 	886
f 793 	885 	887
f 760 	886 	758
f 884 	4 	879
f 885 	758 	886
f 885 	768 	758
f 888 	757 	809
f 4 	880 	879
f 4 	3 	880
f 889 	773 	757
f 757 	888 	889
f 804 	805 	876
f 790 	669 	787
f 876 	805 	881
f 888 	892 	889
f 881 	807 	882
f 888 	891 	892
f 805 	807 	881
f 889 	892 	893
f 807 	183 	882
f 884 	882 	183
f 183 	184 	884
f 184 	4 	884
f 895 	615 	858
f 617 	895 	896
f 618 	617 	896
f 896 	897 	618
f 897 	898 	619
f 619 	898 	716
f 10 	753 	716
f 10 	716 	898
f 909 	910 	893
f 895 	858 	871
f 578 	613 	894
f 878 	896 	895
f 871 	878 	895
f 879 	897 	896
f 898 	897 	880
f 879 	880 	897
f 899 	904 	900
f 901 	2 	10
f 898 	901 	10
f 880 	901 	898
f 900 	902 	890
f 901 	1 	2
f 901 	3 	1
f 880 	3 	901
f 10 	2 	11
f 752 	903 	899
f 5 	11 	2
f 904 	899 	903
f 904 	905 	900
f 900 	905 	902
f 905 	906 	902
f 904 	903 	17
f 903 	23 	17
f 905 	1010 	906
f 1010 	1012 	906
f 907 	906 	1012
f 736 	586 	907
f 891 	890 	902
f 908 	891 	902
f 902 	906 	908
f 892 	891 	908
f 892 	908 	909
f 892 	909 	893
f 910 	894 	893
f 910 	578 	894
f 908 	907 	909
f 906 	907 	908
f 909 	586 	910
f 832 	834 	829
f 907 	586 	909
f 910 	588 	578
f 588 	910 	586
f 818 	911 	913
f 914 	773 	889
f 668 	653 	787
f 889 	893 	914
f 834 	919 	912
f 818 	913 	819
f 775 	915 	777
f 819 	916 	481
f 819 	913 	916
f 775 	914 	915
f 917 	832 	725
f 725 	827 	917
f 832 	918 	834
f 914 	893 	894
f 917 	918 	832
f 913 	1075 	916
f 918 	919 	834
f 843 	97 	850
f 653 	785 	787
f 922 	845 	843
f 919 	923 	912
f 843 	850 	922
f 925 	845 	922
f 914 	894 	915
f 915 	613 	603
f 894 	613 	915
f 927 	846 	925
f 598 	928 	806
f 545 	848 	927
f 928 	598 	730
f 782 	652 	783
f 928 	929 	806
f 919 	918 	1019
f 652 	687 	783
f 652 	782 	653
f 785 	653 	782
f 919 	1020 	923
f 930 	809 	808
f 1019 	1020 	919
f 785 	788 	787
f 929 	930 	808
f 697 	817 	931
f 888 	809 	930
f 817 	935 	931
f 927 	635 	545
f 931 	827 	697
f 119 	141 	688
f 119 	688 	850
f 827 	932 	917
f 689 	922 	850
f 924 	704 	926
f 931 	932 	827
f 689 	850 	688
f 689 	690 	922
f 932 	933 	917
f 922 	690 	925
f 691 	927 	925
f 934 	883 	975
f 690 	691 	925
f 670 	760 	607
f 635 	927 	691
f 975 	926 	934
f 670 	669 	793
f 793 	887 	670
f 933 	918 	917
f 886 	760 	670
f 886 	670 	887
f 830 	863 	921
f 976 	936 	938
f 937 	938 	936
f 935 	939 	931
f 703 	924 	921
f 937 	936 	941
f 940 	77 	69
f 924 	703 	704
f 704 	706 	926
f 939 	932 	931
f 939 	943 	932
f 941 	944 	945
f 941 	945 	937
f 706 	934 	926
f 1066 	946 	940
f 25 	29 	688
f 934 	706 	717
f 31 	690 	28
f 689 	28 	690
f 946 	1066 	942
f 31 	34 	690
f 940 	80 	77
f 932 	943 	933
f 206 	209 	143
f 940 	946 	80
f 137 	167 	138
f 164 	167 	137
f 943 	948 	933
f 138 	166 	140
f 169 	140 	166
f 169 	172 	140
f 826 	383 	935
f 767 	203 	650
f 143 	142 	207
f 950 	953 	947
f 947 	953 	949
f 946 	831 	80
f 668 	787 	669
f 790 	793 	669
f 950 	947 	883
f 951 	952 	944
f 759 	765 	649
f 759 	649 	607
f 765 	767 	649
f 951 	944 	941
f 934 	950 	883
f 950 	718 	953
f 953 	956 	949
f 936 	955 	957
f 955 	961 	957
f 955 	960 	961
f 936 	957 	941
f 951 	941 	959
f 941 	957 	959
f 959 	1173 	951
f 1173 	1157 	951
f 962 	959 	957
f 717 	950 	934
f 957 	961 	962
f 950 	717 	718
f 720 	956 	953
f 718 	720 	953
f 956 	720 	829
f 956 	829 	958
f 960 	965 	961
f 961 	71 	962
f 965 	71 	961
f 71 	61 	962
f 964 	830 	966
f 965 	73 	74
f 965 	74 	71
f 995 	968 	970
f 969 	970 	968
f 994 	966 	967
f 969 	968 	971
f 971 	973 	969
f 973 	971 	974
f 974 	976 	977
f 974 	977 	973
f 936 	976 	974
f 975 	883 	999
f 849 	963 	847
f 971 	980 	974
f 955 	936 	974
f 974 	980 	955
f 964 	828 	830
f 830 	921 	966
f 967 	966 	921
f 968 	978 	979
f 967 	924 	972
f 979 	971 	968
f 921 	924 	967
f 980 	971 	979
f 924 	926 	972
f 972 	926 	975
f 978 	982 	979
f 981 	982 	978
f 836 	100 	90
f 979 	983 	980
f 100 	836 	838
f 979 	982 	983
f 980 	983 	960
f 980 	960 	955
f 987 	838 	984
f 984 	847 	963
f 982 	1127 	983
f 993 	991 	964
f 960 	983 	1128
f 964 	966 	993
f 838 	847 	984
f 985 	986 	33
f 100 	987 	364
f 33 	32 	985
f 987 	990 	364
f 988 	989 	986
f 985 	988 	986
f 989 	988 	992
f 993 	364 	991
f 993 	994 	364
f 992 	995 	996
f 992 	996 	989
f 968 	995 	992
f 32 	38 	1000
f 1000 	985 	32
f 1001 	988 	985
f 100 	838 	987
f 987 	984 	990
f 978 	968 	992
f 990 	984 	963
f 38 	1122 	1000
f 990 	963 	991
f 1001 	985 	1000
f 992 	988 	1002
f 1002 	988 	1001
f 1003 	928 	730
f 920 	1007 	1004
f 730 	738 	1003
f 1003 	1005 	928
f 1003 	899 	1005
f 818 	810 	1004
f 928 	1005 	929
f 1005 	890 	929
f 1006 	920 	1018
f 1005 	900 	890
f 890 	930 	929
f 1006 	1007 	920
f 930 	891 	888
f 1004 	1007 	911
f 930 	890 	891
f 752 	1003 	738
f 1004 	911 	818
f 752 	899 	1003
f 899 	900 	1005
f 904 	17 	1009
f 1008 	337 	335
f 17 	19 	1009
f 810 	339 	337
f 904 	1009 	905
f 1009 	1010 	905
f 462 	622 	1011
f 463 	1011 	1013
f 1013 	455 	463
f 455 	1013 	1014
f 1017 	1013 	1011
f 1013 	1017 	1018
f 1013 	1018 	1014
f 455 	1014 	335
f 1014 	1008 	335
f 1015 	620 	308
f 1016 	622 	1015
f 1011 	622 	1016
f 1011 	1016 	1017
f 1014 	920 	1008
f 920 	1014 	1018
f 1004 	1008 	920
f 1004 	810 	1008
f 1015 	308 	302
f 300 	302 	308
f 1015 	302 	303
f 1015 	303 	1016
f 1016 	304 	1017
f 935 	478 	939
f 383 	478 	935
f 478 	479 	939
f 939 	479 	943
f 427 	945 	428
f 480 	948 	943
f 933 	1019 	918
f 933 	948 	1019
f 944 	428 	945
f 944 	952 	428
f 1022 	1019 	948
f 1020 	1021 	923
f 923 	1021 	1051
f 1019 	1022 	1020
f 937 	945 	427
f 1022 	1024 	1020
f 493 	1024 	1022
f 623 	1023 	1025
f 1021 	1020 	1024
f 1024 	91 	1021
f 674 	429 	954
f 1025 	49 	623
f 948 	491 	1022
f 491 	493 	1022
f 493 	495 	1024
f 1024 	495 	91
f 429 	428 	952
f 1028 	1043 	1029
f 1043 	1045 	1029
f 1029 	1045 	1032
f 638 	970 	552
f 1047 	1029 	1030
f 1047 	1028 	1029
f 1029 	1032 	1030
f 1030 	1032 	1031
f 1034 	1031 	1033
f 969 	973 	552
f 555 	552 	973
f 973 	977 	555
f 634 	555 	977
f 976 	938 	634
f 634 	938 	427
f 1032 	1033 	1031
f 1037 	1035 	1034
f 1034 	1033 	1037
f 1037 	1038 	1035
f 1037 	1060 	1038
f 907 	1012 	736
f 1035 	1038 	1036
f 1036 	1039 	148
f 1009 	19 	20
f 1038 	1039 	1036
f 20 	1010 	1009
f 149 	148 	1039
f 1012 	1010 	324
f 20 	324 	1010
f 324 	743 	1012
f 1012 	743 	736
f 963 	964 	991
f 993 	966 	994
f 997 	994 	967
f 967 	972 	997
f 997 	972 	998
f 998 	975 	999
f 1057 	1059 	1033
f 972 	975 	998
f 1059 	1037 	1033
f 1059 	1060 	1037
f 1038 	1061 	1039
f 1052 	947 	1053
f 1061 	230 	1039
f 1052 	883 	947
f 958 	1040 	1027
f 947 	949 	1053
f 829 	1040 	958
f 1040 	1041 	1027
f 1042 	1054 	949
f 1027 	1041 	1028
f 1042 	1044 	1055
f 1042 	958 	1044
f 1041 	1043 	1028
f 829 	834 	1040
f 834 	912 	1040
f 1067 	1030 	1068
f 1047 	1030 	1067
f 1040 	912 	1041
f 1048 	1041 	912
f 1042 	949 	956
f 912 	923 	1048
f 1041 	1048 	1043
f 1043 	1049 	1045
f 1048 	1049 	1043
f 956 	958 	1042
f 958 	1027 	1044
f 1049 	1050 	1045
f 1044 	1027 	1046
f 1028 	1047 	1027
f 1046 	1027 	1047
f 1048 	1051 	1049
f 923 	1051 	1048
f 364 	999 	1052
f 1052 	1053 	364
f 1032 	1057 	1033
f 1057 	1032 	1045
f 1052 	999 	883
f 1060 	1061 	1038
f 949 	1054 	1053
f 1026 	1085 	1062
f 1050 	1057 	1045
f 1042 	1055 	1054
f 1026 	1084 	1085
f 1057 	1063 	1059
f 1044 	1056 	1055
f 1062 	1023 	1105
f 1058 	1056 	1046
f 1023 	1062 	1064
f 1057 	1050 	1063
f 1063 	1065 	1059
f 1044 	1046 	1056
f 1072 	1064 	1062
f 1023 	1064 	1025
f 1025 	1064 	1066
f 1060 	1059 	1065
f 1060 	75 	1061
f 68 	1025 	1066
f 1066 	940 	68
f 1058 	1046 	1047
f 1067 	1058 	1047
f 1068 	1030 	1031
f 1068 	1031 	1069
f 1069 	1034 	1070
f 1031 	1034 	1069
f 1034 	1035 	1070
f 1073 	911 	1007
f 1070 	1035 	1071
f 1073 	1074 	911
f 1035 	1036 	1071
f 1074 	913 	911
f 1075 	913 	1074
f 921 	863 	703
f 703 	863 	644
f 1080 	485 	916
f 47 	58 	48
f 916 	1075 	1080
f 47 	72 	58
f 58 	59 	48
f 1077 	99 	46
f 1073 	1007 	1078
f 1079 	88 	1077
f 528 	485 	1080
f 89 	1079 	1081
f 1081 	90 	89
f 836 	90 	1081
f 46 	1082 	1077
f 46 	48 	1082
f 1079 	1077 	1083
f 1077 	1082 	1083
f 942 	1064 	1072
f 840 	1079 	1083
f 1083 	867 	840
f 1064 	942 	1066
f 1072 	1062 	1085
f 1084 	1087 	1085
f 1085 	1088 	1072
f 1087 	1084 	1086
f 1086 	1091 	1087
f 1088 	1085 	1087
f 1072 	1089 	942
f 1072 	1088 	1089
f 942 	1089 	1090
f 942 	1090 	946
f 946 	1090 	831
f 1091 	1086 	1094
f 1087 	1092 	1088
f 1087 	1091 	1092
f 1089 	1088 	1093
f 1092 	1093 	1088
f 1089 	1093 	833
f 1093 	839 	833
f 837 	839 	1093
f 1090 	1089 	833
f 1090 	833 	835
f 1090 	835 	831
f 1091 	1094 	105
f 1091 	96 	1092
f 105 	96 	1091
f 1092 	96 	837
f 1092 	837 	1093
f 1172 	102 	1094
f 101 	102 	1172
f 1094 	102 	105
f 641 	1096 	1097
f 643 	1097 	1098
f 1097 	1103 	1098
f 643 	1098 	589
f 1098 	1099 	589
f 1099 	594 	589
f 1100 	1095 	651
f 651 	275 	1100
f 1096 	1101 	1102
f 1097 	1096 	1102
f 1103 	1097 	1102
f 621 	1023 	623
f 621 	1105 	1023
f 1095 	1100 	1101
f 1095 	1101 	1096
f 1104 	1099 	1098
f 1098 	1103 	1104
f 1099 	1104 	1105
f 1099 	1105 	621
f 1162 	1100 	275
f 1100 	1163 	1101
f 1106 	1102 	1164
f 1103 	1106 	1107
f 1103 	1107 	1104
f 1026 	1105 	1104
f 1026 	1104 	1107
f 1105 	1026 	1062
f 1102 	1106 	1103
f 1106 	1109 	1107
f 1106 	1108 	1109
f 1107 	1084 	1026
f 75 	1060 	1065
f 75 	260 	1061
f 1061 	260 	230
f 1110 	1050 	1049
f 1049 	1051 	1110
f 1018 	304 	1111
f 1018 	1017 	304
f 1112 	1050 	1110
f 1111 	1006 	1018
f 81 	1110 	1051
f 1110 	82 	1112
f 81 	82 	1110
f 1050 	1112 	1063
f 1112 	1113 	1063
f 82 	85 	1112
f 1112 	85 	1113
f 1063 	1113 	1065
f 1076 	1006 	1111
f 1113 	76 	1065
f 1076 	1078 	1006
f 1113 	87 	76
f 85 	87 	1113
f 1006 	1078 	1007
f 76 	75 	1065
f 300 	1117 	302
f 300 	1116 	1117
f 1118 	302 	1117
f 1119 	304 	303
f 1119 	303 	1118
f 1119 	1120 	304
f 304 	1120 	1111
f 1120 	1076 	1111
f 45 	797 	796
f 45 	802 	797
f 45 	803 	802
f 45 	804 	803
f 792 	45 	794
f 45 	795 	794
f 937 	427 	938
f 976 	634 	977
f 33 	635 	691
f 537 	45 	539
f 45 	791 	539
f 791 	45 	792
f 635 	33 	986
f 180 	45 	178
f 45 	181 	178
f 45 	182 	181
f 638 	637 	996
f 45 	283 	182
f 989 	637 	986
f 45 	285 	283
f 45 	287 	285
f 995 	970 	638
f 45 	289 	287
f 45 	189 	289
f 989 	996 	637
f 969 	552 	970
f 45 	190 	189
f 45 	193 	190
f 635 	986 	637
f 45 	194 	193
f 45 	197 	194
f 995 	638 	996
f 45 	199 	197
f 45 	1114 	199
f 45 	1115 	1114
f 45 	1116 	1115
f 45 	1117 	1116
f 45 	1118 	1117
f 1149 	1153 	676
f 45 	1119 	1118
f 45 	1120 	1119
f 45 	1076 	1120
f 45 	1078 	1076
f 45 	1073 	1078
f 45 	1074 	1073
f 45 	1075 	1074
f 45 	1080 	1075
f 45 	528 	1080
f 45 	529 	528
f 45 	530 	529
f 45 	531 	530
f 45 	533 	531
f 45 	535 	533
f 992 	1002 	978
f 1121 	38 	37
f 840 	1081 	1079
f 1081 	840 	842
f 1121 	37 	41
f 1081 	842 	836
f 38 	1121 	1122
f 48 	59 	1082
f 1082 	59 	60
f 1083 	1082 	60
f 1000 	1122 	1123
f 1083 	60 	867
f 1122 	1138 	1123
f 1000 	1123 	1001
f 1001 	1124 	1002
f 1001 	1123 	1124
f 1002 	1124 	981
f 1002 	981 	978
f 1125 	981 	1124
f 1126 	982 	981
f 981 	1125 	1126
f 1127 	982 	1126
f 1126 	1131 	1127
f 1128 	983 	1127
f 1128 	965 	960
f 1125 	1129 	1130
f 1130 	1126 	1125
f 1131 	1126 	1130
f 1127 	1132 	1128
f 1127 	1131 	1132
f 1128 	1132 	73
f 1128 	73 	965
f 1134 	1130 	1129
f 1134 	1129 	1133
f 1130 	1134 	1135
f 1130 	1135 	1131
f 1131 	319 	1132
f 1131 	1135 	319
f 320 	73 	1132
f 1132 	319 	320
f 1133 	325 	326
f 326 	1134 	1133
f 326 	327 	1134
f 1135 	1134 	327
f 1135 	327 	321
f 1135 	321 	319
f 1136 	1121 	41
f 1137 	1122 	1121
f 1121 	1136 	1137
f 1122 	1137 	1138
f 1137 	1142 	1138
f 1123 	1138 	1139
f 1138 	1143 	1139
f 1139 	1124 	1123
f 1125 	1124 	1139
f 43 	159 	1140
f 1140 	1136 	43
f 1136 	1140 	1141
f 1141 	1137 	1136
f 1142 	1137 	1141
f 1143 	1138 	1142
f 1139 	1143 	1129
f 1139 	1129 	1125
f 159 	332 	1144
f 332 	337 	1144
f 1144 	1140 	159
f 1141 	1140 	1145
f 1144 	1145 	1140
f 1141 	1145 	1146
f 1145 	340 	1146
f 1141 	1146 	1142
f 1142 	1146 	1147
f 1147 	1143 	1142
f 1133 	1129 	1143
f 1143 	1147 	1133
f 1145 	1144 	339
f 1144 	337 	339
f 340 	1145 	339
f 342 	1147 	1146
f 1146 	340 	342
f 1147 	342 	325
f 1147 	325 	1133
f 1149 	1150 	1148
f 1148 	1150 	1151
f 1149 	1152 	1153
f 1148 	1152 	1149
f 1154 	1155 	1148
f 1154 	1156 	1155
f 1148 	1155 	1152
f 1156 	55 	1155
f 1156 	152 	55
f 151 	152 	1156
f 952 	951 	1157
f 1157 	1158 	1159
f 952 	1157 	954
f 1159 	954 	1157
f 1158 	1160 	1161
f 1160 	1158 	1157
f 677 	676 	1153
f 1149 	676 	1150
f 678 	1153 	1179
f 952 	954 	429
f 954 	1159 	674
f 675 	1151 	676
f 1161 	1151 	675
f 675 	674 	1161
f 674 	1158 	1161
f 1158 	674 	1159
f 1150 	676 	1151
f 1184 	680 	1181
f 1153 	678 	677
f 1184 	330 	680
f 679 	1181 	680
f 1107 	1109 	1084
f 1108 	1167 	1109
f 1109 	1086 	1084
f 1109 	1167 	1086
f 275 	279 	1162
f 1100 	1162 	1163
f 1101 	1163 	1164
f 1101 	1164 	1102
f 1162 	357 	1165
f 1165 	1163 	1162
f 1163 	1165 	1166
f 1163 	1166 	1164
f 1164 	1108 	1106
f 1164 	1166 	1108
f 1168 	357 	397
f 1170 	1108 	1166
f 1167 	1108 	1170
f 1094 	1086 	1167
f 357 	1168 	1165
f 1165 	1169 	1166
f 1169 	1165 	1168
f 1169 	1170 	1166
f 397 	401 	1171
f 397 	1171 	1168
f 1168 	1171 	94
f 401 	120 	1171
f 94 	1169 	1168
f 1169 	95 	1170
f 94 	95 	1169
f 1170 	1172 	1167
f 1170 	95 	1172
f 1167 	1172 	1094
f 1160 	1148 	1161
f 1161 	1148 	1151
f 1160 	1157 	1174
f 1173 	1174 	1157
f 1174 	1154 	1160
f 1160 	1154 	1148
f 959 	962 	1175
f 962 	61 	1175
f 959 	1175 	1173
f 1175 	1176 	1173
f 1173 	1176 	1174
f 45 	537 	535
f 1177 	1154 	1174
f 1176 	1177 	1174
f 1177 	1156 	1154
f 1175 	62 	1176
f 1175 	61 	62
f 62 	64 	1176
f 1176 	64 	1177
f 151 	1156 	1177
f 64 	151 	1177
f 1178 	1179 	1153
f 1152 	1178 	1153
f 1178 	1180 	1179
f 1179 	1180 	1181
f 1179 	1181 	1182
f 1181 	1183 	1184
f 1180 	1183 	1181
f 1183 	328 	1184
f 336 	328 	1183
f 1152 	53 	1178
f 1152 	1155 	53
f 1178 	1185 	1180
f 53 	1185 	1178
f 1185 	57 	1180
f 54 	56 	1185
f 1185 	56 	57
f 57 	1183 	1180
f 57 	336 	1183
f 55 	53 	1155
f 53 	54 	1185
f 1171 	122 	94
f 1171 	120 	122
f 1181 	679 	678
f 1179 	1182 	1181
f 1179 	1181 	678
f 570 	680 	330
f 107 	583 	581
f 110 	585 	107
f 576 	86 	577
f 83 	86 	576
f 103 	581 	577
f 583 	107 	585
f 110 	123 	585
f 573 	84 	576
f 573 	570 	333
f 570 	329 	333
f 333 	84 	573
f 83 	576 	84
f 330 	329 	570
f 329 	334 	333
# 2366 faces

 #end of obj_0

